<svg width="43" height="71" viewBox="0 0 43 71" fill="none" xmlns="http://www.w3.org/2000/svg">
<path fill-rule="evenodd" clip-rule="evenodd" d="M30.1092 0.0387181C30.0849 0.0139536 30.0517 1.00307e-07 30.017 0V0C29.9457 -2.0624e-07 29.8878 0.0578121 29.8878 0.129127V6.85012C29.8878 9.23776 29.8878 10.4316 30.3811 11.3305C30.7473 11.9978 31.2963 12.5467 31.9635 12.9129C32.8625 13.4062 34.0563 13.4062 36.4439 13.4062H42.8425C42.9295 13.4062 43 13.3357 43 13.2487V13.2487C43 13.2074 42.9838 13.1679 42.955 13.1384L30.1092 0.0387181ZM18.6098 4.23916e-06C22.3811 2.06476e-06 24.2667 9.77564e-07 25.4383 1.17157C26.6098 2.34315 26.6098 4.22876 26.6098 8V8.46376C26.6098 12.235 26.6098 14.1206 27.7814 15.2922C28.953 16.4638 30.8386 16.4638 34.6098 16.4638H35C38.7712 16.4638 40.6569 16.4638 41.8284 17.6353C43 18.8069 43 20.6925 43 24.4638V61C43 65.714 43 68.0711 41.5355 69.5355C40.0711 71 37.714 71 33 71H11C6.28595 71 3.92893 71 2.46447 69.5355C1 68.0711 1 65.714 1 61V10C1 5.28596 1 2.92894 2.46447 1.46447C3.92893 8.62678e-06 6.28595 8.62678e-06 11 8.62678e-06L18.6098 4.23916e-06Z" fill="#BCCCDC"/>
<path d="M10.3291 37.7759C9.86914 37.9985 9.26855 38.1099 8.52734 38.1099C7.56055 38.1099 6.80029 37.8257 6.24658 37.2573C5.69287 36.689 5.41602 35.9316 5.41602 34.9854C5.41602 33.9775 5.72656 33.1602 6.34766 32.5332C6.97168 31.9062 7.78027 31.5928 8.77344 31.5928C9.38867 31.5928 9.90723 31.6704 10.3291 31.8257V33.1924C9.90723 32.9404 9.42676 32.8145 8.8877 32.8145C8.2959 32.8145 7.81836 33.0005 7.45508 33.3726C7.0918 33.7446 6.91016 34.2485 6.91016 34.8843C6.91016 35.4937 7.08154 35.98 7.42432 36.3433C7.76709 36.7036 8.22852 36.8838 8.80859 36.8838C9.3623 36.8838 9.86914 36.749 10.3291 36.4795V37.7759ZM13.436 38.1099C12.686 38.1099 12.0957 37.9004 11.665 37.4814C11.2373 37.0596 11.0234 36.4883 11.0234 35.7676C11.0234 35.0234 11.2461 34.4419 11.6914 34.0229C12.1367 33.6011 12.7388 33.3901 13.4976 33.3901C14.2446 33.3901 14.8306 33.6011 15.2554 34.0229C15.6802 34.4419 15.8926 34.9971 15.8926 35.6885C15.8926 36.4355 15.6729 37.0259 15.2334 37.4595C14.7969 37.8931 14.1978 38.1099 13.436 38.1099ZM13.4712 34.4536C13.1431 34.4536 12.8882 34.5664 12.7065 34.792C12.5249 35.0176 12.4341 35.3369 12.4341 35.75C12.4341 36.6143 12.7827 37.0464 13.48 37.0464C14.145 37.0464 14.4775 36.6025 14.4775 35.7148C14.4775 34.874 14.1421 34.4536 13.4712 34.4536ZM18.1821 38H16.7935V31.3379H18.1821V38ZM23.627 38H22.2427V37.3145H22.2207C21.8779 37.8447 21.4194 38.1099 20.8452 38.1099C19.8022 38.1099 19.2808 37.4785 19.2808 36.2158V33.5H20.665V36.0928C20.665 36.7285 20.917 37.0464 21.4209 37.0464C21.6699 37.0464 21.8691 36.96 22.0186 36.7871C22.168 36.6113 22.2427 36.374 22.2427 36.0752V33.5H23.627V38ZM31.9458 38H30.5615V35.4336C30.5615 34.7803 30.3213 34.4536 29.8408 34.4536C29.6123 34.4536 29.4263 34.5518 29.2827 34.748C29.1392 34.9443 29.0674 35.189 29.0674 35.4819V38H27.6787V35.4072C27.6787 34.7715 27.4429 34.4536 26.9712 34.4536C26.7339 34.4536 26.5435 34.5474 26.3999 34.7349C26.2593 34.9224 26.189 35.1772 26.189 35.4995V38H24.8003V33.5H26.189V34.2031H26.2065C26.3501 33.9629 26.5508 33.7681 26.8086 33.6187C27.0693 33.4663 27.3535 33.3901 27.6611 33.3901C28.2969 33.3901 28.7319 33.6699 28.9663 34.2295C29.3091 33.6699 29.813 33.3901 30.478 33.3901C31.4565 33.3901 31.9458 33.9937 31.9458 35.2007V38ZM37.3906 38H36.0063V35.4995C36.0063 34.8022 35.7573 34.4536 35.2593 34.4536C35.019 34.4536 34.8213 34.5459 34.666 34.7305C34.5107 34.915 34.4331 35.1494 34.4331 35.4336V38H33.0444V33.5H34.4331V34.2119H34.4507C34.7817 33.6641 35.2637 33.3901 35.8965 33.3901C36.8926 33.3901 37.3906 34.0083 37.3906 35.2446V38ZM12.6011 50H10.9707L9.99072 48.3784C9.91748 48.2554 9.84717 48.1455 9.77979 48.0488C9.7124 47.9521 9.64355 47.8701 9.57324 47.8027C9.50586 47.7324 9.43408 47.6797 9.35791 47.6445C9.28467 47.6064 9.2041 47.5874 9.11621 47.5874H8.73389V50H7.31445V43.6982H9.56445C11.0938 43.6982 11.8584 44.2695 11.8584 45.4121C11.8584 45.6318 11.8247 45.8354 11.7573 46.0229C11.6899 46.2075 11.5947 46.3745 11.4717 46.5239C11.3486 46.6733 11.1992 46.8022 11.0234 46.9106C10.8506 47.019 10.6572 47.104 10.4434 47.1655V47.1831C10.5371 47.2124 10.6279 47.2607 10.7158 47.3281C10.8037 47.3926 10.8887 47.4688 10.9707 47.5566C11.0527 47.6445 11.1304 47.7397 11.2036 47.8423C11.2798 47.9419 11.3486 48.04 11.4102 48.1367L12.6011 50ZM8.73389 44.7617V46.5151H9.34912C9.65381 46.5151 9.89844 46.4272 10.083 46.2515C10.2705 46.0728 10.3643 45.8516 10.3643 45.5879C10.3643 45.0371 10.0347 44.7617 9.37549 44.7617H8.73389ZM16.8726 48.1455H13.937C13.9839 48.7988 14.3955 49.1255 15.1719 49.1255C15.667 49.1255 16.1021 49.0083 16.4771 48.7739V49.7759C16.061 49.9985 15.5205 50.1099 14.8555 50.1099C14.1289 50.1099 13.5649 49.9092 13.1636 49.5078C12.7622 49.1035 12.5615 48.541 12.5615 47.8203C12.5615 47.0732 12.7783 46.4814 13.2119 46.0449C13.6455 45.6084 14.1787 45.3901 14.8115 45.3901C15.4678 45.3901 15.9746 45.585 16.332 45.9746C16.6924 46.3643 16.8726 46.8931 16.8726 47.561V48.1455ZM15.585 47.293C15.585 46.6484 15.3242 46.3262 14.8027 46.3262C14.5801 46.3262 14.3867 46.4185 14.2227 46.603C14.0615 46.7876 13.9634 47.0176 13.9282 47.293H15.585ZM17.4043 49.8813V48.7563C17.6328 48.894 17.8599 48.9966 18.0854 49.064C18.314 49.1313 18.5293 49.165 18.7314 49.165C18.9775 49.165 19.1709 49.1313 19.3115 49.064C19.4551 48.9966 19.5269 48.894 19.5269 48.7563C19.5269 48.6685 19.4946 48.5952 19.4302 48.5366C19.3657 48.478 19.2822 48.4268 19.1797 48.3828C19.0801 48.3389 18.9702 48.2993 18.8501 48.2642C18.73 48.229 18.6143 48.1895 18.5029 48.1455C18.3242 48.0781 18.166 48.0063 18.0283 47.9302C17.8936 47.8511 17.7793 47.7603 17.6855 47.6577C17.5947 47.5552 17.5244 47.4365 17.4746 47.3018C17.4277 47.167 17.4043 47.0073 17.4043 46.8228C17.4043 46.5708 17.4585 46.354 17.5669 46.1724C17.6782 45.9907 17.8247 45.8428 18.0063 45.7285C18.1909 45.6113 18.4004 45.5264 18.6348 45.4736C18.8721 45.418 19.1182 45.3901 19.373 45.3901C19.5723 45.3901 19.7744 45.4062 19.9795 45.4385C20.1846 45.4678 20.3867 45.5117 20.5859 45.5703V46.6426C20.4102 46.54 20.2212 46.4639 20.019 46.4141C19.8198 46.3613 19.6235 46.335 19.4302 46.335C19.3394 46.335 19.2529 46.3438 19.1709 46.3613C19.0918 46.376 19.0215 46.3994 18.96 46.4316C18.8984 46.4609 18.8501 46.5005 18.8149 46.5503C18.7798 46.5972 18.7622 46.6514 18.7622 46.7129C18.7622 46.7949 18.7886 46.8652 18.8413 46.9238C18.894 46.9824 18.9629 47.0337 19.0479 47.0776C19.1328 47.1187 19.2266 47.1567 19.3291 47.1919C19.4346 47.2241 19.5386 47.2578 19.6411 47.293C19.8257 47.3574 19.9927 47.4277 20.1421 47.5039C20.2915 47.5801 20.4189 47.6694 20.5244 47.772C20.6328 47.8745 20.7148 47.9946 20.7705 48.1323C20.8291 48.27 20.8584 48.4341 20.8584 48.6245C20.8584 48.8911 20.7998 49.1196 20.6826 49.3101C20.5684 49.4976 20.4146 49.6514 20.2212 49.7715C20.0308 49.8887 19.8096 49.9736 19.5576 50.0264C19.3086 50.082 19.0493 50.1099 18.7798 50.1099C18.2847 50.1099 17.8262 50.0337 17.4043 49.8813ZM22.3657 44.7881C22.1313 44.7881 21.9395 44.7192 21.79 44.5815C21.6406 44.4409 21.5659 44.2695 21.5659 44.0674C21.5659 43.8594 21.6406 43.6895 21.79 43.5576C21.9395 43.4258 22.1313 43.3599 22.3657 43.3599C22.603 43.3599 22.7949 43.4258 22.9414 43.5576C23.0908 43.6895 23.1655 43.8594 23.1655 44.0674C23.1655 44.2783 23.0908 44.4512 22.9414 44.5859C22.7949 44.7207 22.603 44.7881 22.3657 44.7881ZM23.0513 50H21.6626V45.5H23.0513V50ZM27.7842 50H23.7456V49.4243L26.0044 46.5239H23.9697V45.5H27.7666V46.1855L25.6265 48.9761H27.7842V50ZM32.5786 48.1455H29.6431C29.6899 48.7988 30.1016 49.1255 30.8779 49.1255C31.373 49.1255 31.8081 49.0083 32.1831 48.7739V49.7759C31.7671 49.9985 31.2266 50.1099 30.5615 50.1099C29.835 50.1099 29.271 49.9092 28.8696 49.5078C28.4683 49.1035 28.2676 48.541 28.2676 47.8203C28.2676 47.0732 28.4844 46.4814 28.918 46.0449C29.3516 45.6084 29.8848 45.3901 30.5176 45.3901C31.1738 45.3901 31.6807 45.585 32.0381 45.9746C32.3984 46.3643 32.5786 46.8931 32.5786 47.561V48.1455ZM31.291 47.293C31.291 46.6484 31.0303 46.3262 30.5088 46.3262C30.2861 46.3262 30.0928 46.4185 29.9287 46.603C29.7676 46.7876 29.6694 47.0176 29.6343 47.293H31.291ZM36.3403 46.7524C36.1733 46.6616 35.9785 46.6162 35.7559 46.6162C35.4541 46.6162 35.2183 46.7275 35.0483 46.9502C34.8784 47.1699 34.7935 47.4702 34.7935 47.8511V50H33.4048V45.5H34.7935V46.335H34.811C35.0308 45.7256 35.4263 45.4209 35.9976 45.4209C36.144 45.4209 36.2583 45.4385 36.3403 45.4736V46.7524Z" fill="#102A43"/>
</svg>
