<svg width="270" height="281" viewBox="0 0 270 281" fill="none" xmlns="http://www.w3.org/2000/svg">
<path fill-rule="evenodd" clip-rule="evenodd" d="M204.459 0C198.936 0 194.459 4.47716 194.459 10V41.7804L142.286 3.59169C137.83 0.329641 130.604 0.329636 126.148 3.59169L3.34241 93.4812C-1.11414 96.7433 -1.11413 102.032 3.34242 105.294L23.4596 120.019L135.121 38.2869L247.019 120.192L246.957 120.238V120.499L266.411 106.26C270.867 102.998 270.867 97.7088 266.411 94.4467L221.22 61.3685V10C221.22 4.47715 216.743 0 211.22 0H204.459ZM238.558 270.357C238.558 275.88 234.08 280.357 228.558 280.357H41.4687C35.9459 280.357 31.4687 275.88 31.4687 270.357L31.4687 128.775H31.4707L31.4431 128.754L135.029 52.9327L238.615 128.754L238.558 128.796L238.558 270.357ZM150.964 223.036H119.529V280.316H150.964V223.036Z" fill="#C4C4C4"/>
</svg>
