<svg width="368" height="296" viewBox="0 0 368 296" fill="none" xmlns="http://www.w3.org/2000/svg">
<path fill-rule="evenodd" clip-rule="evenodd" d="M0 31C0 13.8792 13.8792 0 31 0H337C354.121 0 368 13.8792 368 31V265C368 282.121 354.121 296 337 296H31C13.8792 296 0 282.121 0 265V31ZM94 93H172V153H94V93ZM172 185H94V245H172V185ZM196 93H274V153H196V93ZM274 185H196V245H274V185Z" fill="#C4C4C4"/>
<path d="M61.3398 58H56.0664V32.4062H61.3398V58ZM70.6738 38.9805L70.832 41.1074C72.1797 39.4551 74.002 38.6289 76.2988 38.6289C78.748 38.6289 80.4297 39.5957 81.3438 41.5293C82.6797 39.5957 84.584 38.6289 87.0566 38.6289C89.1191 38.6289 90.6543 39.2324 91.6621 40.4395C92.6699 41.6348 93.1738 43.4395 93.1738 45.8535V58H88.0762V45.8711C88.0762 44.793 87.8652 44.0078 87.4434 43.5156C87.0215 43.0117 86.2773 42.7598 85.2109 42.7598C83.6875 42.7598 82.6328 43.4863 82.0469 44.9395L82.0645 58H76.9844V45.8887C76.9844 44.7871 76.7676 43.9902 76.334 43.498C75.9004 43.0059 75.1621 42.7598 74.1191 42.7598C72.6777 42.7598 71.6348 43.3574 70.9902 44.5527V58H65.9102V38.9805H70.6738ZM108.115 58C107.881 57.543 107.711 56.9746 107.605 56.2949C106.375 57.666 104.775 58.3516 102.807 58.3516C100.943 58.3516 99.3965 57.8125 98.166 56.7344C96.9473 55.6562 96.3379 54.2969 96.3379 52.6562C96.3379 50.6406 97.082 49.0938 98.5703 48.0156C100.07 46.9375 102.232 46.3926 105.057 46.3809H107.395V45.291C107.395 44.4121 107.166 43.709 106.709 43.1816C106.264 42.6543 105.555 42.3906 104.582 42.3906C103.727 42.3906 103.053 42.5957 102.561 43.0059C102.08 43.416 101.84 43.9785 101.84 44.6934H96.7598C96.7598 43.5918 97.0996 42.5723 97.7793 41.6348C98.459 40.6973 99.4199 39.9648 100.662 39.4375C101.904 38.8984 103.299 38.6289 104.846 38.6289C107.189 38.6289 109.047 39.2207 110.418 40.4043C111.801 41.5762 112.492 43.2285 112.492 45.3613V53.6055C112.504 55.4102 112.756 56.7754 113.248 57.7012V58H108.115ZM103.914 54.4668C104.664 54.4668 105.355 54.3027 105.988 53.9746C106.621 53.6348 107.09 53.1836 107.395 52.6211V49.3516H105.496C102.953 49.3516 101.6 50.2305 101.436 51.9883L101.418 52.2871C101.418 52.9199 101.641 53.4414 102.086 53.8516C102.531 54.2617 103.141 54.4668 103.914 54.4668ZM115.656 48.3496C115.656 45.4316 116.348 43.082 117.73 41.3008C119.125 39.5195 121 38.6289 123.355 38.6289C125.441 38.6289 127.064 39.3438 128.225 40.7734L128.436 38.9805H133.041V57.3672C133.041 59.0312 132.66 60.4785 131.898 61.709C131.148 62.9395 130.088 63.877 128.717 64.5215C127.346 65.166 125.74 65.4883 123.9 65.4883C122.506 65.4883 121.146 65.207 119.822 64.6445C118.498 64.0938 117.496 63.3789 116.816 62.5L119.066 59.4062C120.332 60.8242 121.867 61.5332 123.672 61.5332C125.02 61.5332 126.068 61.1699 126.818 60.4434C127.568 59.7285 127.943 58.709 127.943 57.3848V56.3652C126.771 57.6895 125.23 58.3516 123.32 58.3516C121.035 58.3516 119.184 57.4609 117.766 55.6797C116.359 53.8867 115.656 51.5137 115.656 48.5605V48.3496ZM120.736 48.7188C120.736 50.4414 121.082 51.7949 121.773 52.7793C122.465 53.752 123.414 54.2383 124.621 54.2383C126.168 54.2383 127.275 53.6582 127.943 52.498V44.5C127.264 43.3398 126.168 42.7598 124.656 42.7598C123.438 42.7598 122.477 43.2578 121.773 44.2539C121.082 45.25 120.736 46.7383 120.736 48.7188ZM145.715 58.3516C142.926 58.3516 140.652 57.4961 138.895 55.7852C137.148 54.0742 136.275 51.7949 136.275 48.9473V48.4551C136.275 46.5449 136.645 44.8398 137.383 43.3398C138.121 41.8281 139.164 40.668 140.512 39.8594C141.871 39.0391 143.418 38.6289 145.152 38.6289C147.754 38.6289 149.799 39.4492 151.287 41.0898C152.787 42.7305 153.537 45.0566 153.537 48.0684V50.1426H141.426C141.59 51.3848 142.082 52.3809 142.902 53.1309C143.734 53.8809 144.783 54.2559 146.049 54.2559C148.006 54.2559 149.535 53.5469 150.637 52.1289L153.133 54.9238C152.371 56.002 151.34 56.8457 150.039 57.4551C148.738 58.0527 147.297 58.3516 145.715 58.3516ZM145.135 42.7422C144.127 42.7422 143.307 43.082 142.674 43.7617C142.053 44.4414 141.654 45.4141 141.479 46.6797H148.545V46.2754C148.521 45.1504 148.217 44.2832 147.631 43.6738C147.045 43.0527 146.213 42.7422 145.135 42.7422ZM183.947 36.6777H176.107V58H170.834V36.6777H163.1V32.4062H183.947V36.6777ZM193.809 58.3516C191.02 58.3516 188.746 57.4961 186.988 55.7852C185.242 54.0742 184.369 51.7949 184.369 48.9473V48.4551C184.369 46.5449 184.738 44.8398 185.477 43.3398C186.215 41.8281 187.258 40.668 188.605 39.8594C189.965 39.0391 191.512 38.6289 193.246 38.6289C195.848 38.6289 197.893 39.4492 199.381 41.0898C200.881 42.7305 201.631 45.0566 201.631 48.0684V50.1426H189.52C189.684 51.3848 190.176 52.3809 190.996 53.1309C191.828 53.8809 192.877 54.2559 194.143 54.2559C196.1 54.2559 197.629 53.5469 198.73 52.1289L201.227 54.9238C200.465 56.002 199.434 56.8457 198.133 57.4551C196.832 58.0527 195.391 58.3516 193.809 58.3516ZM193.229 42.7422C192.221 42.7422 191.4 43.082 190.768 43.7617C190.146 44.4414 189.748 45.4141 189.572 46.6797H196.639V46.2754C196.615 45.1504 196.311 44.2832 195.725 43.6738C195.139 43.0527 194.307 42.7422 193.229 42.7422ZM209.295 38.9805L209.453 41.1074C210.801 39.4551 212.623 38.6289 214.92 38.6289C217.369 38.6289 219.051 39.5957 219.965 41.5293C221.301 39.5957 223.205 38.6289 225.678 38.6289C227.74 38.6289 229.275 39.2324 230.283 40.4395C231.291 41.6348 231.795 43.4395 231.795 45.8535V58H226.697V45.8711C226.697 44.793 226.486 44.0078 226.064 43.5156C225.643 43.0117 224.898 42.7598 223.832 42.7598C222.309 42.7598 221.254 43.4863 220.668 44.9395L220.686 58H215.605V45.8887C215.605 44.7871 215.389 43.9902 214.955 43.498C214.521 43.0059 213.783 42.7598 212.74 42.7598C211.299 42.7598 210.256 43.3574 209.611 44.5527V58H204.531V38.9805H209.295ZM252.836 48.666C252.836 51.5957 252.168 53.9453 250.832 55.7148C249.508 57.4727 247.715 58.3516 245.453 58.3516C243.531 58.3516 241.979 57.6836 240.795 56.3477V65.3125H235.715V38.9805H240.426L240.602 40.8438C241.832 39.3672 243.438 38.6289 245.418 38.6289C247.762 38.6289 249.584 39.4961 250.885 41.2305C252.186 42.9648 252.836 45.3555 252.836 48.4023V48.666ZM247.756 48.2969C247.756 46.5273 247.439 45.1621 246.807 44.2012C246.186 43.2402 245.277 42.7598 244.082 42.7598C242.488 42.7598 241.393 43.3691 240.795 44.5879V52.375C241.416 53.6289 242.523 54.2559 244.117 54.2559C246.543 54.2559 247.756 52.2695 247.756 48.2969ZM261.361 58H256.264V31H261.361V58ZM276.584 58C276.35 57.543 276.18 56.9746 276.074 56.2949C274.844 57.666 273.244 58.3516 271.275 58.3516C269.412 58.3516 267.865 57.8125 266.635 56.7344C265.416 55.6562 264.807 54.2969 264.807 52.6562C264.807 50.6406 265.551 49.0938 267.039 48.0156C268.539 46.9375 270.701 46.3926 273.525 46.3809H275.863V45.291C275.863 44.4121 275.635 43.709 275.178 43.1816C274.732 42.6543 274.023 42.3906 273.051 42.3906C272.195 42.3906 271.521 42.5957 271.029 43.0059C270.549 43.416 270.309 43.9785 270.309 44.6934H265.229C265.229 43.5918 265.568 42.5723 266.248 41.6348C266.928 40.6973 267.889 39.9648 269.131 39.4375C270.373 38.8984 271.768 38.6289 273.314 38.6289C275.658 38.6289 277.516 39.2207 278.887 40.4043C280.27 41.5762 280.961 43.2285 280.961 45.3613V53.6055C280.973 55.4102 281.225 56.7754 281.717 57.7012V58H276.584ZM272.383 54.4668C273.133 54.4668 273.824 54.3027 274.457 53.9746C275.09 53.6348 275.559 53.1836 275.863 52.6211V49.3516H273.965C271.422 49.3516 270.068 50.2305 269.904 51.9883L269.887 52.2871C269.887 52.9199 270.109 53.4414 270.555 53.8516C271 54.2617 271.609 54.4668 272.383 54.4668ZM290.945 34.3047V38.9805H294.197V42.707H290.945V52.1992C290.945 52.9023 291.08 53.4062 291.35 53.7109C291.619 54.0156 292.135 54.168 292.896 54.168C293.459 54.168 293.957 54.127 294.391 54.0449V57.8945C293.395 58.1992 292.369 58.3516 291.314 58.3516C287.752 58.3516 285.936 56.5527 285.865 52.9551V42.707H283.088V38.9805H285.865V34.3047H290.945ZM305.781 58.3516C302.992 58.3516 300.719 57.4961 298.961 55.7852C297.215 54.0742 296.342 51.7949 296.342 48.9473V48.4551C296.342 46.5449 296.711 44.8398 297.449 43.3398C298.188 41.8281 299.23 40.668 300.578 39.8594C301.938 39.0391 303.484 38.6289 305.219 38.6289C307.82 38.6289 309.865 39.4492 311.354 41.0898C312.854 42.7305 313.604 45.0566 313.604 48.0684V50.1426H301.492C301.656 51.3848 302.148 52.3809 302.969 53.1309C303.801 53.8809 304.85 54.2559 306.115 54.2559C308.072 54.2559 309.602 53.5469 310.703 52.1289L313.199 54.9238C312.438 56.002 311.406 56.8457 310.105 57.4551C308.805 58.0527 307.363 58.3516 305.781 58.3516ZM305.201 42.7422C304.193 42.7422 303.373 43.082 302.74 43.7617C302.119 44.4414 301.721 45.4141 301.545 46.6797H308.611V46.2754C308.588 45.1504 308.283 44.2832 307.697 43.6738C307.111 43.0527 306.279 42.7422 305.201 42.7422Z" fill="#102A43"/>
</svg>
