<svg width="43" height="71" viewBox="0 0 43 71" fill="none" xmlns="http://www.w3.org/2000/svg">
<path fill-rule="evenodd" clip-rule="evenodd" d="M30.1092 0.0387181C30.0849 0.0139536 30.0517 1.00307e-07 30.017 0V0C29.9457 -2.0624e-07 29.8878 0.0578121 29.8878 0.129127V6.85012C29.8878 9.23776 29.8878 10.4316 30.3811 11.3305C30.7473 11.9978 31.2963 12.5467 31.9635 12.9129C32.8625 13.4062 34.0563 13.4062 36.4439 13.4062H42.8425C42.9295 13.4062 43 13.3357 43 13.2487V13.2487C43 13.2074 42.9838 13.1679 42.955 13.1384L30.1092 0.0387181ZM18.6098 4.23916e-06C22.3811 2.06476e-06 24.2667 9.77564e-07 25.4383 1.17157C26.6098 2.34315 26.6098 4.22876 26.6098 8V8.46376C26.6098 12.235 26.6098 14.1206 27.7814 15.2922C28.953 16.4638 30.8386 16.4638 34.6098 16.4638H35C38.7712 16.4638 40.6569 16.4638 41.8284 17.6353C43 18.8069 43 20.6925 43 24.4638V61C43 65.714 43 68.0711 41.5355 69.5355C40.0711 71 37.714 71 33 71H11C6.28595 71 3.92893 71 2.46447 69.5355C1 68.0711 1 65.714 1 61V10C1 5.28596 1 2.92894 2.46447 1.46447C3.92893 8.62678e-06 6.28595 8.62678e-06 11 8.62678e-06L18.6098 4.23916e-06Z" fill="#BCCCDC"/>
<path d="M13.9194 38H12.5V31.6982H13.9194V38ZM17.9404 37.9473C17.7354 38.0557 17.4263 38.1099 17.0132 38.1099C16.0347 38.1099 15.5454 37.6016 15.5454 36.585V34.5239H14.8159V33.5H15.5454V32.5288L16.9297 32.1333V33.5H17.9404V34.5239H16.9297V36.3433C16.9297 36.812 17.1157 37.0464 17.4878 37.0464C17.6343 37.0464 17.7852 37.0039 17.9404 36.9189V37.9473ZM22.7349 36.1455H19.7993C19.8462 36.7988 20.2578 37.1255 21.0342 37.1255C21.5293 37.1255 21.9644 37.0083 22.3394 36.7739V37.7759C21.9233 37.9985 21.3828 38.1099 20.7178 38.1099C19.9912 38.1099 19.4272 37.9092 19.0259 37.5078C18.6245 37.1035 18.4238 36.541 18.4238 35.8203C18.4238 35.0732 18.6406 34.4814 19.0742 34.0449C19.5078 33.6084 20.041 33.3901 20.6738 33.3901C21.3301 33.3901 21.8369 33.585 22.1943 33.9746C22.5547 34.3643 22.7349 34.8931 22.7349 35.561V36.1455ZM21.4473 35.293C21.4473 34.6484 21.1865 34.3262 20.665 34.3262C20.4424 34.3262 20.249 34.4185 20.085 34.603C19.9238 34.7876 19.8257 35.0176 19.7905 35.293H21.4473ZM30.7065 38H29.3223V35.4336C29.3223 34.7803 29.082 34.4536 28.6016 34.4536C28.373 34.4536 28.187 34.5518 28.0435 34.748C27.8999 34.9443 27.8281 35.189 27.8281 35.4819V38H26.4395V35.4072C26.4395 34.7715 26.2036 34.4536 25.7319 34.4536C25.4946 34.4536 25.3042 34.5474 25.1606 34.7349C25.02 34.9224 24.9497 35.1772 24.9497 35.4995V38H23.561V33.5H24.9497V34.2031H24.9673C25.1108 33.9629 25.3115 33.7681 25.5693 33.6187C25.8301 33.4663 26.1143 33.3901 26.4219 33.3901C27.0576 33.3901 27.4927 33.6699 27.7271 34.2295C28.0698 33.6699 28.5737 33.3901 29.2388 33.3901C30.2173 33.3901 30.7065 33.9937 30.7065 35.2007V38ZM7.1958 44.854H5.39844V50H3.97461V44.854H2.18604V43.6982H7.1958V44.854ZM11.1421 48.1455H8.20654C8.25342 48.7988 8.66504 49.1255 9.44141 49.1255C9.93652 49.1255 10.3716 49.0083 10.7466 48.7739V49.7759C10.3306 49.9985 9.79004 50.1099 9.125 50.1099C8.39844 50.1099 7.83447 49.9092 7.43311 49.5078C7.03174 49.1035 6.83105 48.541 6.83105 47.8203C6.83105 47.0732 7.04785 46.4814 7.48145 46.0449C7.91504 45.6084 8.44824 45.3901 9.08105 45.3901C9.7373 45.3901 10.2441 45.585 10.6016 45.9746C10.9619 46.3643 11.1421 46.8931 11.1421 47.561V48.1455ZM9.85449 47.293C9.85449 46.6484 9.59375 46.3262 9.07227 46.3262C8.84961 46.3262 8.65625 46.4185 8.49219 46.603C8.33105 46.7876 8.23291 47.0176 8.19775 47.293H9.85449ZM19.1138 50H17.7295V47.4336C17.7295 46.7803 17.4893 46.4536 17.0088 46.4536C16.7803 46.4536 16.5942 46.5518 16.4507 46.748C16.3071 46.9443 16.2354 47.189 16.2354 47.4819V50H14.8467V47.4072C14.8467 46.7715 14.6108 46.4536 14.1392 46.4536C13.9019 46.4536 13.7114 46.5474 13.5679 46.7349C13.4272 46.9224 13.3569 47.1772 13.3569 47.4995V50H11.9683V45.5H13.3569V46.2031H13.3745C13.5181 45.9629 13.7188 45.7681 13.9766 45.6187C14.2373 45.4663 14.5215 45.3901 14.8291 45.3901C15.4648 45.3901 15.8999 45.6699 16.1343 46.2295C16.4771 45.6699 16.981 45.3901 17.646 45.3901C18.6245 45.3901 19.1138 45.9937 19.1138 47.2007V50ZM21.6187 49.4771H21.6011V52.0698H20.2124V45.5H21.6011V46.1768H21.6187C21.9614 45.6523 22.4434 45.3901 23.0645 45.3901C23.6475 45.3901 24.0972 45.5908 24.4136 45.9922C24.7329 46.3906 24.8926 46.9341 24.8926 47.6226C24.8926 48.3726 24.7065 48.9746 24.3345 49.4287C23.9653 49.8828 23.4731 50.1099 22.8579 50.1099C22.3159 50.1099 21.9028 49.8989 21.6187 49.4771ZM21.5791 47.6313V47.9917C21.5791 48.3022 21.6611 48.5557 21.8252 48.752C21.9893 48.9482 22.2046 49.0464 22.4712 49.0464C22.7876 49.0464 23.0322 48.9248 23.2051 48.6816C23.3809 48.4355 23.4688 48.0884 23.4688 47.6401C23.4688 46.8491 23.1611 46.4536 22.5459 46.4536C22.2617 46.4536 22.0288 46.562 21.8472 46.7788C21.6685 46.9927 21.5791 47.2769 21.5791 47.6313ZM27.1821 50H25.7935V43.3379H27.1821V50ZM32.0952 50H30.7812V49.354H30.7637C30.4619 49.8579 30.0151 50.1099 29.4233 50.1099C28.9868 50.1099 28.6426 49.9868 28.3906 49.7407C28.1416 49.4917 28.0171 49.1606 28.0171 48.7476C28.0171 47.8745 28.5342 47.3706 29.5684 47.2358L30.79 47.0732C30.79 46.5811 30.5234 46.335 29.9902 46.335C29.4541 46.335 28.9443 46.4946 28.4609 46.814V45.7681C28.6543 45.6685 28.918 45.5806 29.252 45.5044C29.5889 45.4282 29.895 45.3901 30.1704 45.3901C31.4536 45.3901 32.0952 46.0303 32.0952 47.3105V50ZM30.79 48.1719V47.8687L29.9727 47.9741C29.5215 48.0327 29.2959 48.2363 29.2959 48.585C29.2959 48.7432 29.3501 48.8735 29.4585 48.9761C29.5698 49.0757 29.7192 49.1255 29.9067 49.1255C30.1675 49.1255 30.3799 49.0361 30.5439 48.8574C30.708 48.6758 30.79 48.4473 30.79 48.1719ZM35.9141 49.9473C35.709 50.0557 35.3999 50.1099 34.9868 50.1099C34.0083 50.1099 33.519 49.6016 33.519 48.585V46.5239H32.7896V45.5H33.519V44.5288L34.9033 44.1333V45.5H35.9141V46.5239H34.9033V48.3433C34.9033 48.812 35.0894 49.0464 35.4614 49.0464C35.6079 49.0464 35.7588 49.0039 35.9141 48.9189V49.9473ZM40.7085 48.1455H37.7729C37.8198 48.7988 38.2314 49.1255 39.0078 49.1255C39.5029 49.1255 39.938 49.0083 40.313 48.7739V49.7759C39.897 49.9985 39.3564 50.1099 38.6914 50.1099C37.9648 50.1099 37.4009 49.9092 36.9995 49.5078C36.5981 49.1035 36.3975 48.541 36.3975 47.8203C36.3975 47.0732 36.6143 46.4814 37.0479 46.0449C37.4814 45.6084 38.0146 45.3901 38.6475 45.3901C39.3037 45.3901 39.8105 45.585 40.168 45.9746C40.5283 46.3643 40.7085 46.8931 40.7085 47.561V48.1455ZM39.4209 47.293C39.4209 46.6484 39.1602 46.3262 38.6387 46.3262C38.416 46.3262 38.2227 46.4185 38.0586 46.603C37.8975 46.7876 37.7993 47.0176 37.7642 47.293H39.4209Z" fill="#102A43"/>
</svg>
