<svg width="368" height="296" viewBox="0 0 368 296" fill="none" xmlns="http://www.w3.org/2000/svg">
<path fill-rule="evenodd" clip-rule="evenodd" d="M0 31C0 13.8792 13.8792 0 31 0H337C354.121 0 368 13.8792 368 31V265C368 282.121 354.121 296 337 296H31C13.8792 296 0 282.121 0 265V31ZM94 93H172V153H94V93ZM172 185H94V245H172V185ZM196 93H274V153H196V93ZM274 185H196V245H274V185Z" fill="#C4C4C4"/>
<path d="M75.1914 58H69.918V32.4062H75.1914V58ZM85.8438 34.3047V38.9805H89.0957V42.707H85.8438V52.1992C85.8438 52.9023 85.9785 53.4062 86.248 53.7109C86.5176 54.0156 87.0332 54.168 87.7949 54.168C88.3574 54.168 88.8555 54.127 89.2891 54.0449V57.8945C88.293 58.1992 87.2676 58.3516 86.2129 58.3516C82.6504 58.3516 80.834 56.5527 80.7637 52.9551V42.707H77.9863V38.9805H80.7637V34.3047H85.8438ZM100.68 58.3516C97.8906 58.3516 95.6172 57.4961 93.8594 55.7852C92.1133 54.0742 91.2402 51.7949 91.2402 48.9473V48.4551C91.2402 46.5449 91.6094 44.8398 92.3477 43.3398C93.0859 41.8281 94.1289 40.668 95.4766 39.8594C96.8359 39.0391 98.3828 38.6289 100.117 38.6289C102.719 38.6289 104.764 39.4492 106.252 41.0898C107.752 42.7305 108.502 45.0566 108.502 48.0684V50.1426H96.3906C96.5547 51.3848 97.0469 52.3809 97.8672 53.1309C98.6992 53.8809 99.748 54.2559 101.014 54.2559C102.971 54.2559 104.5 53.5469 105.602 52.1289L108.098 54.9238C107.336 56.002 106.305 56.8457 105.004 57.4551C103.703 58.0527 102.262 58.3516 100.68 58.3516ZM100.1 42.7422C99.0918 42.7422 98.2715 43.082 97.6387 43.7617C97.0176 44.4414 96.6191 45.4141 96.4434 46.6797H103.51V46.2754C103.486 45.1504 103.182 44.2832 102.596 43.6738C102.01 43.0527 101.178 42.7422 100.1 42.7422ZM116.166 38.9805L116.324 41.1074C117.672 39.4551 119.494 38.6289 121.791 38.6289C124.24 38.6289 125.922 39.5957 126.836 41.5293C128.172 39.5957 130.076 38.6289 132.549 38.6289C134.611 38.6289 136.146 39.2324 137.154 40.4395C138.162 41.6348 138.666 43.4395 138.666 45.8535V58H133.568V45.8711C133.568 44.793 133.357 44.0078 132.936 43.5156C132.514 43.0117 131.77 42.7598 130.703 42.7598C129.18 42.7598 128.125 43.4863 127.539 44.9395L127.557 58H122.477V45.8887C122.477 44.7871 122.26 43.9902 121.826 43.498C121.393 43.0059 120.654 42.7598 119.611 42.7598C118.17 42.7598 117.127 43.3574 116.482 44.5527V58H111.402V38.9805H116.166ZM170.096 36.6777H162.256V58H156.982V36.6777H149.248V32.4062H170.096V36.6777ZM179.957 58.3516C177.168 58.3516 174.895 57.4961 173.137 55.7852C171.391 54.0742 170.518 51.7949 170.518 48.9473V48.4551C170.518 46.5449 170.887 44.8398 171.625 43.3398C172.363 41.8281 173.406 40.668 174.754 39.8594C176.113 39.0391 177.66 38.6289 179.395 38.6289C181.996 38.6289 184.041 39.4492 185.529 41.0898C187.029 42.7305 187.779 45.0566 187.779 48.0684V50.1426H175.668C175.832 51.3848 176.324 52.3809 177.145 53.1309C177.977 53.8809 179.025 54.2559 180.291 54.2559C182.248 54.2559 183.777 53.5469 184.879 52.1289L187.375 54.9238C186.613 56.002 185.582 56.8457 184.281 57.4551C182.98 58.0527 181.539 58.3516 179.957 58.3516ZM179.377 42.7422C178.369 42.7422 177.549 43.082 176.916 43.7617C176.295 44.4414 175.896 45.4141 175.721 46.6797H182.787V46.2754C182.764 45.1504 182.459 44.2832 181.873 43.6738C181.287 43.0527 180.455 42.7422 179.377 42.7422ZM195.443 38.9805L195.602 41.1074C196.949 39.4551 198.771 38.6289 201.068 38.6289C203.518 38.6289 205.199 39.5957 206.113 41.5293C207.449 39.5957 209.354 38.6289 211.826 38.6289C213.889 38.6289 215.424 39.2324 216.432 40.4395C217.439 41.6348 217.943 43.4395 217.943 45.8535V58H212.846V45.8711C212.846 44.793 212.635 44.0078 212.213 43.5156C211.791 43.0117 211.047 42.7598 209.98 42.7598C208.457 42.7598 207.402 43.4863 206.816 44.9395L206.834 58H201.754V45.8887C201.754 44.7871 201.537 43.9902 201.104 43.498C200.67 43.0059 199.932 42.7598 198.889 42.7598C197.447 42.7598 196.404 43.3574 195.76 44.5527V58H190.68V38.9805H195.443ZM238.984 48.666C238.984 51.5957 238.316 53.9453 236.98 55.7148C235.656 57.4727 233.863 58.3516 231.602 58.3516C229.68 58.3516 228.127 57.6836 226.943 56.3477V65.3125H221.863V38.9805H226.574L226.75 40.8438C227.98 39.3672 229.586 38.6289 231.566 38.6289C233.91 38.6289 235.732 39.4961 237.033 41.2305C238.334 42.9648 238.984 45.3555 238.984 48.4023V48.666ZM233.904 48.2969C233.904 46.5273 233.588 45.1621 232.955 44.2012C232.334 43.2402 231.426 42.7598 230.23 42.7598C228.637 42.7598 227.541 43.3691 226.943 44.5879V52.375C227.564 53.6289 228.672 54.2559 230.266 54.2559C232.691 54.2559 233.904 52.2695 233.904 48.2969ZM247.51 58H242.412V31H247.51V58ZM262.732 58C262.498 57.543 262.328 56.9746 262.223 56.2949C260.992 57.666 259.393 58.3516 257.424 58.3516C255.561 58.3516 254.014 57.8125 252.783 56.7344C251.564 55.6562 250.955 54.2969 250.955 52.6562C250.955 50.6406 251.699 49.0938 253.188 48.0156C254.688 46.9375 256.85 46.3926 259.674 46.3809H262.012V45.291C262.012 44.4121 261.783 43.709 261.326 43.1816C260.881 42.6543 260.172 42.3906 259.199 42.3906C258.344 42.3906 257.67 42.5957 257.178 43.0059C256.697 43.416 256.457 43.9785 256.457 44.6934H251.377C251.377 43.5918 251.717 42.5723 252.396 41.6348C253.076 40.6973 254.037 39.9648 255.279 39.4375C256.521 38.8984 257.916 38.6289 259.463 38.6289C261.807 38.6289 263.664 39.2207 265.035 40.4043C266.418 41.5762 267.109 43.2285 267.109 45.3613V53.6055C267.121 55.4102 267.373 56.7754 267.865 57.7012V58H262.732ZM258.531 54.4668C259.281 54.4668 259.973 54.3027 260.605 53.9746C261.238 53.6348 261.707 53.1836 262.012 52.6211V49.3516H260.113C257.57 49.3516 256.217 50.2305 256.053 51.9883L256.035 52.2871C256.035 52.9199 256.258 53.4414 256.703 53.8516C257.148 54.2617 257.758 54.4668 258.531 54.4668ZM277.094 34.3047V38.9805H280.346V42.707H277.094V52.1992C277.094 52.9023 277.229 53.4062 277.498 53.7109C277.768 54.0156 278.283 54.168 279.045 54.168C279.607 54.168 280.105 54.127 280.539 54.0449V57.8945C279.543 58.1992 278.518 58.3516 277.463 58.3516C273.9 58.3516 272.084 56.5527 272.014 52.9551V42.707H269.236V38.9805H272.014V34.3047H277.094ZM291.93 58.3516C289.141 58.3516 286.867 57.4961 285.109 55.7852C283.363 54.0742 282.49 51.7949 282.49 48.9473V48.4551C282.49 46.5449 282.859 44.8398 283.598 43.3398C284.336 41.8281 285.379 40.668 286.727 39.8594C288.086 39.0391 289.633 38.6289 291.367 38.6289C293.969 38.6289 296.014 39.4492 297.502 41.0898C299.002 42.7305 299.752 45.0566 299.752 48.0684V50.1426H287.641C287.805 51.3848 288.297 52.3809 289.117 53.1309C289.949 53.8809 290.998 54.2559 292.264 54.2559C294.221 54.2559 295.75 53.5469 296.852 52.1289L299.348 54.9238C298.586 56.002 297.555 56.8457 296.254 57.4551C294.953 58.0527 293.512 58.3516 291.93 58.3516ZM291.35 42.7422C290.342 42.7422 289.521 43.082 288.889 43.7617C288.268 44.4414 287.869 45.4141 287.693 46.6797H294.76V46.2754C294.736 45.1504 294.432 44.2832 293.846 43.6738C293.26 43.0527 292.428 42.7422 291.35 42.7422Z" fill="#102A43"/>
</svg>
