<svg width="242" height="66" viewBox="0 0 242 66" fill="none" xmlns="http://www.w3.org/2000/svg">
<path d="M12.0273 56.7622H7.24609V59.9995H12.8574V62H4.75586V49.9141H12.8408V51.9312H7.24609V54.8115H12.0273V56.7622ZM19.3652 62C19.2546 61.7842 19.1743 61.5158 19.1245 61.1948C18.5435 61.8423 17.7881 62.166 16.8584 62.166C15.9785 62.166 15.248 61.9115 14.667 61.4023C14.0915 60.8932 13.8037 60.2513 13.8037 59.4766C13.8037 58.5247 14.1551 57.7943 14.8579 57.2852C15.5662 56.776 16.5872 56.5187 17.9209 56.5132H19.0249V55.9985C19.0249 55.5835 18.917 55.2515 18.7012 55.0024C18.4909 54.7534 18.1561 54.6289 17.6968 54.6289C17.2928 54.6289 16.9746 54.7257 16.7422 54.9194C16.5153 55.1131 16.4019 55.3787 16.4019 55.7163H14.0029C14.0029 55.1961 14.1634 54.7147 14.4844 54.272C14.8053 53.8293 15.2591 53.4834 15.8457 53.2344C16.4323 52.9798 17.0908 52.8525 17.8213 52.8525C18.9281 52.8525 19.8052 53.132 20.4526 53.6909C21.1056 54.2443 21.4321 55.0246 21.4321 56.0317V59.9248C21.4377 60.777 21.5566 61.4217 21.7891 61.8589V62H19.3652ZM17.3813 60.3315C17.7355 60.3315 18.062 60.2541 18.3608 60.0991C18.6597 59.9386 18.881 59.7256 19.0249 59.46V57.916H18.1284C16.9276 57.916 16.2884 58.3311 16.2109 59.1611L16.2026 59.3022C16.2026 59.6011 16.3078 59.8473 16.5181 60.041C16.7284 60.2347 17.0161 60.3315 17.3813 60.3315ZM28.1392 59.5181C28.1392 59.2248 27.9925 58.9951 27.6992 58.8291C27.4115 58.6576 26.9466 58.5054 26.3047 58.3726C24.1686 57.9243 23.1006 57.0168 23.1006 55.6499C23.1006 54.853 23.4299 54.189 24.0884 53.6577C24.7524 53.1209 25.6185 52.8525 26.6865 52.8525C27.8265 52.8525 28.7368 53.1209 29.4175 53.6577C30.1037 54.1945 30.4468 54.8918 30.4468 55.7495H28.0479C28.0479 55.4064 27.9372 55.1242 27.7158 54.9028C27.4945 54.6759 27.1486 54.5625 26.6782 54.5625C26.2743 54.5625 25.9616 54.6538 25.7402 54.8364C25.5189 55.019 25.4082 55.2515 25.4082 55.5337C25.4082 55.7993 25.5327 56.0151 25.7817 56.1812C26.0363 56.3416 26.4624 56.4827 27.0601 56.6045C27.6577 56.7207 28.1613 56.8535 28.5708 57.0029C29.8381 57.4678 30.4717 58.2729 30.4717 59.4185C30.4717 60.2375 30.1203 60.9015 29.4175 61.4106C28.7147 61.9142 27.8071 62.166 26.6948 62.166C25.9422 62.166 25.2726 62.0332 24.686 61.7676C24.105 61.4964 23.6484 61.1284 23.3164 60.6636C22.9844 60.1932 22.8184 59.6868 22.8184 59.1445H25.0928C25.1149 59.5706 25.2726 59.8971 25.5659 60.124C25.8592 60.3509 26.2521 60.4644 26.7446 60.4644C27.2039 60.4644 27.5498 60.3786 27.7822 60.207C28.0202 60.0299 28.1392 59.8003 28.1392 59.5181ZM34.5557 62H32.1484V53.0186H34.5557V62ZM32.0073 50.6943C32.0073 50.3346 32.1263 50.0386 32.3643 49.8062C32.6077 49.5737 32.937 49.4575 33.3521 49.4575C33.7616 49.4575 34.0881 49.5737 34.3315 49.8062C34.575 50.0386 34.6968 50.3346 34.6968 50.6943C34.6968 51.0596 34.5723 51.3584 34.3232 51.5908C34.0798 51.8232 33.756 51.9395 33.3521 51.9395C32.9481 51.9395 32.6216 51.8232 32.3726 51.5908C32.1291 51.3584 32.0073 51.0596 32.0073 50.6943ZM39.0713 62H36.6641V49.25H39.0713V62ZM44.4087 58.605L46.0688 53.0186H48.6421L45.0312 63.3945L44.832 63.8677C44.2952 65.0409 43.4098 65.6274 42.1758 65.6274C41.8271 65.6274 41.473 65.5749 41.1133 65.4697V63.6519L41.4785 63.6602C41.9323 63.6602 42.2699 63.591 42.4912 63.4526C42.7181 63.3143 42.8952 63.0846 43.0225 62.7637L43.3047 62.0249L40.1587 53.0186H42.7402L44.4087 58.605ZM56.0713 53.0186L56.146 54.0229C56.7824 53.2427 57.6429 52.8525 58.7275 52.8525C59.8841 52.8525 60.6782 53.3091 61.1099 54.2222C61.7407 53.3091 62.64 52.8525 63.8076 52.8525C64.7816 52.8525 65.5065 53.1375 65.9824 53.7075C66.4583 54.272 66.6963 55.1242 66.6963 56.2642V62H64.2891V56.2725C64.2891 55.7633 64.1895 55.3926 63.9902 55.1602C63.791 54.9222 63.4396 54.8032 62.936 54.8032C62.2166 54.8032 61.7186 55.1463 61.4419 55.8325L61.4502 62H59.0513V56.2808C59.0513 55.7606 58.9489 55.3843 58.7441 55.1519C58.5394 54.9194 58.1908 54.8032 57.6982 54.8032C57.0176 54.8032 56.5251 55.0854 56.2207 55.6499V62H53.8218V53.0186H56.0713ZM73.752 62C73.6413 61.7842 73.561 61.5158 73.5112 61.1948C72.9302 61.8423 72.1748 62.166 71.2451 62.166C70.3652 62.166 69.6348 61.9115 69.0537 61.4023C68.4782 60.8932 68.1904 60.2513 68.1904 59.4766C68.1904 58.5247 68.5418 57.7943 69.2446 57.2852C69.953 56.776 70.974 56.5187 72.3076 56.5132H73.4116V55.9985C73.4116 55.5835 73.3037 55.2515 73.0879 55.0024C72.8776 54.7534 72.5428 54.6289 72.0835 54.6289C71.6795 54.6289 71.3613 54.7257 71.1289 54.9194C70.902 55.1131 70.7886 55.3787 70.7886 55.7163H68.3896C68.3896 55.1961 68.5501 54.7147 68.8711 54.272C69.1921 53.8293 69.6458 53.4834 70.2324 53.2344C70.819 52.9798 71.4775 52.8525 72.208 52.8525C73.3148 52.8525 74.1919 53.132 74.8394 53.6909C75.4924 54.2443 75.8188 55.0246 75.8188 56.0317V59.9248C75.8244 60.777 75.9434 61.4217 76.1758 61.8589V62H73.752ZM71.7681 60.3315C72.1222 60.3315 72.4487 60.2541 72.7476 60.0991C73.0464 59.9386 73.2677 59.7256 73.4116 59.46V57.916H72.5151C71.3143 57.916 70.6751 58.3311 70.5977 59.1611L70.5894 59.3022C70.5894 59.6011 70.6945 59.8473 70.9048 60.041C71.1151 60.2347 71.4028 60.3315 71.7681 60.3315ZM79.8696 53.0186L79.9443 54.0562C80.5863 53.2537 81.4468 52.8525 82.5259 52.8525C83.4777 52.8525 84.186 53.132 84.6509 53.6909C85.1157 54.2498 85.3537 55.0854 85.3647 56.1978V62H82.9658V56.2559C82.9658 55.7467 82.8551 55.3787 82.6338 55.1519C82.4124 54.9194 82.0444 54.8032 81.5298 54.8032C80.8547 54.8032 80.3483 55.091 80.0107 55.6665V62H77.6118V53.0186H79.8696ZM89.7227 62H87.3154V53.0186H89.7227V62ZM87.1743 50.6943C87.1743 50.3346 87.2933 50.0386 87.5312 49.8062C87.7747 49.5737 88.104 49.4575 88.519 49.4575C88.9285 49.4575 89.255 49.5737 89.4985 49.8062C89.742 50.0386 89.8638 50.3346 89.8638 50.6943C89.8638 51.0596 89.7393 51.3584 89.4902 51.5908C89.2467 51.8232 88.923 51.9395 88.519 51.9395C88.1151 51.9395 87.7886 51.8232 87.5396 51.5908C87.2961 51.3584 87.1743 51.0596 87.1743 50.6943ZM99.7915 57.5923C99.7915 58.9757 99.4761 60.0853 98.8452 60.9209C98.2199 61.751 97.3732 62.166 96.3052 62.166C95.3976 62.166 94.6644 61.8506 94.1055 61.2197V65.4531H91.7065V53.0186H93.9312L94.0142 53.8984C94.5952 53.2012 95.3534 52.8525 96.2886 52.8525C97.3953 52.8525 98.2559 53.262 98.8701 54.0811C99.4844 54.9001 99.7915 56.029 99.7915 57.4678V57.5923ZM97.3926 57.418C97.3926 56.5824 97.2432 55.9377 96.9443 55.4839C96.651 55.0301 96.2222 54.8032 95.6577 54.8032C94.9051 54.8032 94.3877 55.091 94.1055 55.6665V59.3438C94.3988 59.9359 94.9217 60.2319 95.6743 60.2319C96.8198 60.2319 97.3926 59.2939 97.3926 57.418ZM106.665 61.0869C106.072 61.8063 105.253 62.166 104.208 62.166C103.245 62.166 102.509 61.8893 102 61.3359C101.496 60.7826 101.239 59.9718 101.228 58.9038V53.0186H103.626V58.8208C103.626 59.756 104.053 60.2236 104.905 60.2236C105.718 60.2236 106.277 59.9414 106.582 59.377V53.0186H108.989V62H106.731L106.665 61.0869ZM113.33 62H110.923V49.25H113.33V62ZM120.519 62C120.408 61.7842 120.328 61.5158 120.278 61.1948C119.697 61.8423 118.941 62.166 118.012 62.166C117.132 62.166 116.401 61.9115 115.82 61.4023C115.245 60.8932 114.957 60.2513 114.957 59.4766C114.957 58.5247 115.308 57.7943 116.011 57.2852C116.72 56.776 117.741 56.5187 119.074 56.5132H120.178V55.9985C120.178 55.5835 120.07 55.2515 119.854 55.0024C119.644 54.7534 119.309 54.6289 118.85 54.6289C118.446 54.6289 118.128 54.7257 117.896 54.9194C117.669 55.1131 117.555 55.3787 117.555 55.7163H115.156C115.156 55.1961 115.317 54.7147 115.638 54.272C115.959 53.8293 116.412 53.4834 116.999 53.2344C117.586 52.9798 118.244 52.8525 118.975 52.8525C120.081 52.8525 120.958 53.132 121.606 53.6909C122.259 54.2443 122.585 55.0246 122.585 56.0317V59.9248C122.591 60.777 122.71 61.4217 122.942 61.8589V62H120.519ZM118.535 60.3315C118.889 60.3315 119.215 60.2541 119.514 60.0991C119.813 59.9386 120.034 59.7256 120.178 59.46V57.916H119.282C118.081 57.916 117.442 58.3311 117.364 59.1611L117.356 59.3022C117.356 59.6011 117.461 59.8473 117.671 60.041C117.882 60.2347 118.169 60.3315 118.535 60.3315ZM127.3 50.8105V53.0186H128.836V54.7783H127.3V59.2607C127.3 59.5928 127.364 59.8307 127.491 59.9746C127.618 60.1185 127.862 60.1904 128.222 60.1904C128.487 60.1904 128.722 60.1711 128.927 60.1323V61.9502C128.457 62.0941 127.973 62.166 127.475 62.166C125.792 62.166 124.935 61.3166 124.901 59.6177V54.7783H123.59V53.0186H124.901V50.8105H127.3ZM134.306 62.166C132.989 62.166 131.916 61.762 131.085 60.9541C130.261 60.1462 129.849 59.0698 129.849 57.7251V57.4927C129.849 56.5907 130.023 55.7855 130.372 55.0771C130.72 54.3633 131.213 53.8154 131.849 53.4336C132.491 53.0462 133.222 52.8525 134.041 52.8525C135.269 52.8525 136.235 53.2399 136.938 54.0146C137.646 54.7894 138 55.8879 138 57.3101V58.2896H132.281C132.358 58.8761 132.591 59.3465 132.978 59.7007C133.371 60.0549 133.866 60.2319 134.464 60.2319C135.388 60.2319 136.11 59.8971 136.63 59.2275L137.809 60.5474C137.449 61.0565 136.962 61.4549 136.348 61.7427C135.734 62.0249 135.053 62.166 134.306 62.166ZM134.032 54.7949C133.556 54.7949 133.169 54.9554 132.87 55.2764C132.577 55.5973 132.389 56.0566 132.306 56.6543H135.643V56.4634C135.632 55.9321 135.488 55.5226 135.211 55.2349C134.934 54.9416 134.541 54.7949 134.032 54.7949ZM147.737 62.166C146.42 62.166 145.346 61.762 144.516 60.9541C143.692 60.1462 143.279 59.0698 143.279 57.7251V57.4927C143.279 56.5907 143.454 55.7855 143.802 55.0771C144.151 54.3633 144.643 53.8154 145.28 53.4336C145.922 53.0462 146.652 52.8525 147.471 52.8525C148.7 52.8525 149.665 53.2399 150.368 54.0146C151.076 54.7894 151.431 55.8879 151.431 57.3101V58.2896H145.711C145.789 58.8761 146.021 59.3465 146.409 59.7007C146.802 60.0549 147.297 60.2319 147.895 60.2319C148.819 60.2319 149.541 59.8971 150.061 59.2275L151.24 60.5474C150.88 61.0565 150.393 61.4549 149.779 61.7427C149.165 62.0249 148.484 62.166 147.737 62.166ZM147.463 54.7949C146.987 54.7949 146.6 54.9554 146.301 55.2764C146.007 55.5973 145.819 56.0566 145.736 56.6543H149.073V56.4634C149.062 55.9321 148.918 55.5226 148.642 55.2349C148.365 54.9416 147.972 54.7949 147.463 54.7949ZM156.22 55.6997L157.731 53.0186H160.296L157.739 57.418L160.404 62H157.831L156.229 59.1777L154.635 62H152.053L154.718 57.418L152.169 53.0186H154.743L156.22 55.6997ZM165.019 60.2319C165.462 60.2319 165.821 60.1102 166.098 59.8667C166.375 59.6232 166.519 59.2995 166.53 58.8955H168.779C168.774 59.5042 168.608 60.0632 168.281 60.5723C167.955 61.0758 167.507 61.4688 166.937 61.751C166.372 62.0277 165.747 62.166 165.061 62.166C163.777 62.166 162.764 61.7593 162.022 60.9458C161.281 60.1268 160.91 58.9979 160.91 57.5591V57.4014C160.91 56.0179 161.278 54.9139 162.014 54.0894C162.75 53.2648 163.76 52.8525 165.044 52.8525C166.167 52.8525 167.067 53.1735 167.742 53.8154C168.422 54.4518 168.768 55.3013 168.779 56.3638H166.53C166.519 55.8989 166.375 55.5226 166.098 55.2349C165.821 54.9416 165.456 54.7949 165.002 54.7949C164.444 54.7949 164.02 54.9997 163.732 55.4092C163.45 55.8132 163.309 56.4717 163.309 57.3848V57.6338C163.309 58.5579 163.45 59.222 163.732 59.626C164.015 60.0299 164.444 60.2319 165.019 60.2319ZM174.283 62.166C172.966 62.166 171.892 61.762 171.062 60.9541C170.237 60.1462 169.825 59.0698 169.825 57.7251V57.4927C169.825 56.5907 170 55.7855 170.348 55.0771C170.697 54.3633 171.189 53.8154 171.826 53.4336C172.468 53.0462 173.198 52.8525 174.017 52.8525C175.246 52.8525 176.211 53.2399 176.914 54.0146C177.622 54.7894 177.977 55.8879 177.977 57.3101V58.2896H172.257C172.335 58.8761 172.567 59.3465 172.955 59.7007C173.347 60.0549 173.843 60.2319 174.44 60.2319C175.365 60.2319 176.087 59.8971 176.607 59.2275L177.786 60.5474C177.426 61.0565 176.939 61.4549 176.325 61.7427C175.71 62.0249 175.03 62.166 174.283 62.166ZM174.009 54.7949C173.533 54.7949 173.146 54.9554 172.847 55.2764C172.553 55.5973 172.365 56.0566 172.282 56.6543H175.619V56.4634C175.608 55.9321 175.464 55.5226 175.188 55.2349C174.911 54.9416 174.518 54.7949 174.009 54.7949ZM181.878 62H179.471V49.25H181.878V62ZM192.959 59.5181C192.959 59.2248 192.813 58.9951 192.52 58.8291C192.232 58.6576 191.767 58.5054 191.125 58.3726C188.989 57.9243 187.921 57.0168 187.921 55.6499C187.921 54.853 188.25 54.189 188.909 53.6577C189.573 53.1209 190.439 52.8525 191.507 52.8525C192.647 52.8525 193.557 53.1209 194.238 53.6577C194.924 54.1945 195.267 54.8918 195.267 55.7495H192.868C192.868 55.4064 192.757 55.1242 192.536 54.9028C192.315 54.6759 191.969 54.5625 191.499 54.5625C191.095 54.5625 190.782 54.6538 190.561 54.8364C190.339 55.019 190.229 55.2515 190.229 55.5337C190.229 55.7993 190.353 56.0151 190.602 56.1812C190.857 56.3416 191.283 56.4827 191.88 56.6045C192.478 56.7207 192.982 56.8535 193.391 57.0029C194.658 57.4678 195.292 58.2729 195.292 59.4185C195.292 60.2375 194.941 60.9015 194.238 61.4106C193.535 61.9142 192.627 62.166 191.515 62.166C190.763 62.166 190.093 62.0332 189.506 61.7676C188.925 61.4964 188.469 61.1284 188.137 60.6636C187.805 60.1932 187.639 59.6868 187.639 59.1445H189.913C189.935 59.5706 190.093 59.8971 190.386 60.124C190.68 60.3509 191.072 60.4644 191.565 60.4644C192.024 60.4644 192.37 60.3786 192.603 60.207C192.84 60.0299 192.959 59.8003 192.959 59.5181ZM199.185 53.998C199.821 53.2344 200.621 52.8525 201.584 52.8525C203.532 52.8525 204.52 53.9842 204.547 56.2476V62H202.148V56.314C202.148 55.7993 202.038 55.4202 201.816 55.1768C201.595 54.9277 201.227 54.8032 200.712 54.8032C200.01 54.8032 199.5 55.0744 199.185 55.6167V62H196.786V49.25H199.185V53.998ZM210.491 62.166C209.174 62.166 208.1 61.762 207.27 60.9541C206.445 60.1462 206.033 59.0698 206.033 57.7251V57.4927C206.033 56.5907 206.208 55.7855 206.556 55.0771C206.905 54.3633 207.397 53.8154 208.034 53.4336C208.676 53.0462 209.406 52.8525 210.225 52.8525C211.454 52.8525 212.419 53.2399 213.122 54.0146C213.83 54.7894 214.185 55.8879 214.185 57.3101V58.2896H208.465C208.543 58.8761 208.775 59.3465 209.163 59.7007C209.556 60.0549 210.051 60.2319 210.648 60.2319C211.573 60.2319 212.295 59.8971 212.815 59.2275L213.994 60.5474C213.634 61.0565 213.147 61.4549 212.533 61.7427C211.918 62.0249 211.238 62.166 210.491 62.166ZM210.217 54.7949C209.741 54.7949 209.354 54.9554 209.055 55.2764C208.761 55.5973 208.573 56.0566 208.49 56.6543H211.827V56.4634C211.816 55.9321 211.672 55.5226 211.396 55.2349C211.119 54.9416 210.726 54.7949 210.217 54.7949ZM219.688 62.166C218.371 62.166 217.297 61.762 216.467 60.9541C215.643 60.1462 215.23 59.0698 215.23 57.7251V57.4927C215.23 56.5907 215.405 55.7855 215.753 55.0771C216.102 54.3633 216.595 53.8154 217.231 53.4336C217.873 53.0462 218.603 52.8525 219.422 52.8525C220.651 52.8525 221.617 53.2399 222.319 54.0146C223.028 54.7894 223.382 55.8879 223.382 57.3101V58.2896H217.663C217.74 58.8761 217.972 59.3465 218.36 59.7007C218.753 60.0549 219.248 60.2319 219.846 60.2319C220.77 60.2319 221.492 59.8971 222.012 59.2275L223.191 60.5474C222.831 61.0565 222.344 61.4549 221.73 61.7427C221.116 62.0249 220.435 62.166 219.688 62.166ZM219.414 54.7949C218.938 54.7949 218.551 54.9554 218.252 55.2764C217.959 55.5973 217.771 56.0566 217.688 56.6543H221.024V56.4634C221.013 55.9321 220.869 55.5226 220.593 55.2349C220.316 54.9416 219.923 54.7949 219.414 54.7949ZM227.624 50.8105V53.0186H229.159V54.7783H227.624V59.2607C227.624 59.5928 227.687 59.8307 227.814 59.9746C227.942 60.1185 228.185 60.1904 228.545 60.1904C228.811 60.1904 229.046 60.1711 229.25 60.1323V61.9502C228.78 62.0941 228.296 62.166 227.798 62.166C226.116 62.166 225.258 61.3166 225.225 59.6177V54.7783H223.913V53.0186H225.225V50.8105H227.624ZM235.36 59.5181C235.36 59.2248 235.213 58.9951 234.92 58.8291C234.632 58.6576 234.167 58.5054 233.525 58.3726C231.389 57.9243 230.321 57.0168 230.321 55.6499C230.321 54.853 230.651 54.189 231.309 53.6577C231.973 53.1209 232.839 52.8525 233.907 52.8525C235.047 52.8525 235.958 53.1209 236.638 53.6577C237.324 54.1945 237.667 54.8918 237.667 55.7495H235.269C235.269 55.4064 235.158 55.1242 234.937 54.9028C234.715 54.6759 234.369 54.5625 233.899 54.5625C233.495 54.5625 233.182 54.6538 232.961 54.8364C232.74 55.019 232.629 55.2515 232.629 55.5337C232.629 55.7993 232.753 56.0151 233.002 56.1812C233.257 56.3416 233.683 56.4827 234.281 56.6045C234.878 56.7207 235.382 56.8535 235.792 57.0029C237.059 57.4678 237.692 58.2729 237.692 59.4185C237.692 60.2375 237.341 60.9015 236.638 61.4106C235.935 61.9142 235.028 62.166 233.916 62.166C233.163 62.166 232.493 62.0332 231.907 61.7676C231.326 61.4964 230.869 61.1284 230.537 60.6636C230.205 60.1932 230.039 59.6868 230.039 59.1445H232.313C232.336 59.5706 232.493 59.8971 232.787 60.124C233.08 60.3509 233.473 60.4644 233.965 60.4644C234.425 60.4644 234.771 60.3786 235.003 60.207C235.241 60.0299 235.36 59.8003 235.36 59.5181Z" fill="#102A43"/>
<path d="M23.6641 29.2109H10.1641V38.3516H26.0078V44H3.13281L3.13281 9.875H25.9609V15.5703H10.1641V23.7031H23.6641V29.2109ZM39.3438 26.2109L43.6094 18.6406H50.8516L43.6328 31.0625L51.1562 44H43.8906L39.3672 36.0312L34.8672 44H27.5781L35.1016 31.0625L27.9062 18.6406H35.1719L39.3438 26.2109ZM64.1875 39.0078C65.4375 39.0078 66.4531 38.6641 67.2344 37.9766C68.0156 37.2891 68.4219 36.375 68.4531 35.2344H74.8047C74.7891 36.9531 74.3203 38.5312 73.3984 39.9688C72.4766 41.3906 71.2109 42.5 69.6016 43.2969C68.0078 44.0781 66.2422 44.4688 64.3047 44.4688C60.6797 44.4688 57.8203 43.3203 55.7266 41.0234C53.6328 38.7109 52.5859 35.5234 52.5859 31.4609V31.0156C52.5859 27.1094 53.625 23.9922 55.7031 21.6641C57.7812 19.3359 60.6328 18.1719 64.2578 18.1719C67.4297 18.1719 69.9688 19.0781 71.875 20.8906C73.7969 22.6875 74.7734 25.0859 74.8047 28.0859H68.4531C68.4219 26.7734 68.0156 25.7109 67.2344 24.8984C66.4531 24.0703 65.4219 23.6562 64.1406 23.6562C62.5625 23.6562 61.3672 24.2344 60.5547 25.3906C59.7578 26.5312 59.3594 28.3906 59.3594 30.9688V31.6719C59.3594 34.2812 59.7578 36.1562 60.5547 37.2969C61.3516 38.4375 62.5625 39.0078 64.1875 39.0078ZM90.3438 44.4688C86.625 44.4688 83.5938 43.3281 81.25 41.0469C78.9219 38.7656 77.7578 35.7266 77.7578 31.9297V31.2734C77.7578 28.7266 78.25 26.4531 79.2344 24.4531C80.2188 22.4375 81.6094 20.8906 83.4062 19.8125C85.2188 18.7188 87.2812 18.1719 89.5938 18.1719C93.0625 18.1719 95.7891 19.2656 97.7734 21.4531C99.7734 23.6406 100.773 26.7422 100.773 30.7578V33.5234H84.625C84.8438 35.1797 85.5 36.5078 86.5938 37.5078C87.7031 38.5078 89.1016 39.0078 90.7891 39.0078C93.3984 39.0078 95.4375 38.0625 96.9062 36.1719L100.234 39.8984C99.2188 41.3359 97.8438 42.4609 96.1094 43.2734C94.375 44.0703 92.4531 44.4688 90.3438 44.4688ZM89.5703 23.6562C88.2266 23.6562 87.1328 24.1094 86.2891 25.0156C85.4609 25.9219 84.9297 27.2188 84.6953 28.9062H94.1172V28.3672C94.0859 26.8672 93.6797 25.7109 92.8984 24.8984C92.1172 24.0703 91.0078 23.6562 89.5703 23.6562ZM111.789 44H104.992V8H111.789V44ZM154.07 15.5703H143.617V44H136.586V15.5703L126.273 15.5703V9.875L154.07 9.875V15.5703ZM151.727 31.0859C151.727 28.5703 152.211 26.3281 153.18 24.3594C154.148 22.3906 155.539 20.8672 157.352 19.7891C159.18 18.7109 161.297 18.1719 163.703 18.1719C167.125 18.1719 169.914 19.2188 172.07 21.3125C174.242 23.4062 175.453 26.25 175.703 29.8438L175.75 31.5781C175.75 35.4688 174.664 38.5938 172.492 40.9531C170.32 43.2969 167.406 44.4688 163.75 44.4688C160.094 44.4688 157.172 43.2969 154.984 40.9531C152.812 38.6094 151.727 35.4219 151.727 31.3906V31.0859ZM158.5 31.5781C158.5 33.9844 158.953 35.8281 159.859 37.1094C160.766 38.375 162.062 39.0078 163.75 39.0078C165.391 39.0078 166.672 38.3828 167.594 37.1328C168.516 35.8672 168.977 33.8516 168.977 31.0859C168.977 28.7266 168.516 26.8984 167.594 25.6016C166.672 24.3047 165.375 23.6562 163.703 23.6562C162.047 23.6562 160.766 24.3047 159.859 25.6016C158.953 26.8828 158.5 28.875 158.5 31.5781ZM178.867 31.0859C178.867 28.5703 179.352 26.3281 180.32 24.3594C181.289 22.3906 182.68 20.8672 184.492 19.7891C186.32 18.7109 188.438 18.1719 190.844 18.1719C194.266 18.1719 197.055 19.2188 199.211 21.3125C201.383 23.4062 202.594 26.25 202.844 29.8438L202.891 31.5781C202.891 35.4688 201.805 38.5938 199.633 40.9531C197.461 43.2969 194.547 44.4688 190.891 44.4688C187.234 44.4688 184.312 43.2969 182.125 40.9531C179.953 38.6094 178.867 35.4219 178.867 31.3906V31.0859ZM185.641 31.5781C185.641 33.9844 186.094 35.8281 187 37.1094C187.906 38.375 189.203 39.0078 190.891 39.0078C192.531 39.0078 193.812 38.3828 194.734 37.1328C195.656 35.8672 196.117 33.8516 196.117 31.0859C196.117 28.7266 195.656 26.8984 194.734 25.6016C193.812 24.3047 192.516 23.6562 190.844 23.6562C189.188 23.6562 187.906 24.3047 187 25.6016C186.094 26.8828 185.641 28.875 185.641 31.5781ZM214.211 44H207.414V8H214.211V44ZM233.547 36.9922C233.547 36.1641 233.133 35.5156 232.305 35.0469C231.492 34.5625 230.18 34.1328 228.367 33.7578C222.336 32.4922 219.32 29.9297 219.32 26.0703C219.32 23.8203 220.25 21.9453 222.109 20.4453C223.984 18.9297 226.43 18.1719 229.445 18.1719C232.664 18.1719 235.234 18.9297 237.156 20.4453C239.094 21.9609 240.062 23.9297 240.062 26.3516H233.289C233.289 25.3828 232.977 24.5859 232.352 23.9609C231.727 23.3203 230.75 23 229.422 23C228.281 23 227.398 23.2578 226.773 23.7734C226.148 24.2891 225.836 24.9453 225.836 25.7422C225.836 26.4922 226.188 27.1016 226.891 27.5703C227.609 28.0234 228.812 28.4219 230.5 28.7656C232.188 29.0938 233.609 29.4688 234.766 29.8906C238.344 31.2031 240.133 33.4766 240.133 36.7109C240.133 39.0234 239.141 40.8984 237.156 42.3359C235.172 43.7578 232.609 44.4688 229.469 44.4688C227.344 44.4688 225.453 44.0938 223.797 43.3438C222.156 42.5781 220.867 41.5391 219.93 40.2266C218.992 38.8984 218.523 37.4688 218.523 35.9375H224.945C225.008 37.1406 225.453 38.0625 226.281 38.7031C227.109 39.3438 228.219 39.6641 229.609 39.6641C230.906 39.6641 231.883 39.4219 232.539 38.9375C233.211 38.4375 233.547 37.7891 233.547 36.9922Z" fill="#102A43"/>
</svg>
