<svg width="43" height="71" viewBox="0 0 43 71" fill="none" xmlns="http://www.w3.org/2000/svg">
<path fill-rule="evenodd" clip-rule="evenodd" d="M30.1092 0.0387181C30.0849 0.0139536 30.0517 1.00307e-07 30.017 0V0C29.9457 -2.0624e-07 29.8878 0.0578121 29.8878 0.129127V6.85012C29.8878 9.23776 29.8878 10.4316 30.3811 11.3305C30.7473 11.9978 31.2963 12.5467 31.9635 12.9129C32.8625 13.4062 34.0563 13.4062 36.4439 13.4062H42.8425C42.9295 13.4062 43 13.3357 43 13.2487V13.2487C43 13.2074 42.9838 13.1679 42.955 13.1384L30.1092 0.0387181ZM18.6098 4.23916e-06C22.3811 2.06476e-06 24.2667 9.77565e-07 25.4383 1.17157C26.6098 2.34315 26.6098 4.22876 26.6098 8V8.46376C26.6098 12.235 26.6098 14.1206 27.7814 15.2922C28.953 16.4638 30.8386 16.4638 34.6098 16.4638H35C38.7712 16.4638 40.6569 16.4638 41.8284 17.6353C43 18.8069 43 20.6925 43 24.4638V61C43 65.714 43 68.0711 41.5355 69.5355C40.0711 71 37.714 71 33 71H11C6.28595 71 3.92893 71 2.46447 69.5355C1 68.0711 1 65.714 1 61V10C1 5.28596 1 2.92894 2.46447 1.46447C3.92893 8.62678e-06 6.28595 8.62678e-06 11 8.62678e-06L18.6098 4.23916e-06Z" fill="#BCCCDC"/>
<path d="M13.0625 32H11.6606V28.2295C11.6606 27.8223 11.6782 27.3726 11.7134 26.8804H11.6782C11.605 27.2671 11.5391 27.5454 11.4805 27.7153L10.0039 32H8.84375L7.34082 27.7593C7.2998 27.645 7.23389 27.3521 7.14307 26.8804H7.10352C7.1416 27.5015 7.16064 28.0464 7.16064 28.5151V32H5.88184V25.6982H7.96045L9.24805 29.4336C9.35059 29.7324 9.42529 30.0327 9.47217 30.3345H9.49854C9.57764 29.9858 9.66113 29.6826 9.74902 29.4248L11.0366 25.6982H13.0625V32ZM15.062 26.7881C14.8276 26.7881 14.6357 26.7192 14.4863 26.5815C14.3369 26.4409 14.2622 26.2695 14.2622 26.0674C14.2622 25.8594 14.3369 25.6895 14.4863 25.5576C14.6357 25.4258 14.8276 25.3599 15.062 25.3599C15.2993 25.3599 15.4912 25.4258 15.6377 25.5576C15.7871 25.6895 15.8618 25.8594 15.8618 26.0674C15.8618 26.2783 15.7871 26.4512 15.6377 26.5859C15.4912 26.7207 15.2993 26.7881 15.062 26.7881ZM15.7476 32H14.3589V27.5H15.7476V32ZM16.6221 31.8813V30.7563C16.8506 30.894 17.0776 30.9966 17.3032 31.064C17.5317 31.1313 17.7471 31.165 17.9492 31.165C18.1953 31.165 18.3887 31.1313 18.5293 31.064C18.6729 30.9966 18.7446 30.894 18.7446 30.7563C18.7446 30.6685 18.7124 30.5952 18.6479 30.5366C18.5835 30.478 18.5 30.4268 18.3975 30.3828C18.2979 30.3389 18.188 30.2993 18.0679 30.2642C17.9478 30.229 17.832 30.1895 17.7207 30.1455C17.542 30.0781 17.3838 30.0063 17.2461 29.9302C17.1113 29.8511 16.9971 29.7603 16.9033 29.6577C16.8125 29.5552 16.7422 29.4365 16.6924 29.3018C16.6455 29.167 16.6221 29.0073 16.6221 28.8228C16.6221 28.5708 16.6763 28.354 16.7847 28.1724C16.896 27.9907 17.0425 27.8428 17.2241 27.7285C17.4087 27.6113 17.6182 27.5264 17.8525 27.4736C18.0898 27.418 18.3359 27.3901 18.5908 27.3901C18.79 27.3901 18.9922 27.4062 19.1973 27.4385C19.4023 27.4678 19.6045 27.5117 19.8037 27.5703V28.6426C19.6279 28.54 19.439 28.4639 19.2368 28.4141C19.0376 28.3613 18.8413 28.335 18.6479 28.335C18.5571 28.335 18.4707 28.3438 18.3887 28.3613C18.3096 28.376 18.2393 28.3994 18.1777 28.4316C18.1162 28.4609 18.0679 28.5005 18.0327 28.5503C17.9976 28.5972 17.98 28.6514 17.98 28.7129C17.98 28.7949 18.0063 28.8652 18.0591 28.9238C18.1118 28.9824 18.1807 29.0337 18.2656 29.0776C18.3506 29.1187 18.4443 29.1567 18.5469 29.1919C18.6523 29.2241 18.7563 29.2578 18.8589 29.293C19.0435 29.3574 19.2104 29.4277 19.3599 29.5039C19.5093 29.5801 19.6367 29.6694 19.7422 29.772C19.8506 29.8745 19.9326 29.9946 19.9883 30.1323C20.0469 30.27 20.0762 30.4341 20.0762 30.6245C20.0762 30.8911 20.0176 31.1196 19.9004 31.3101C19.7861 31.4976 19.6323 31.6514 19.439 31.7715C19.2485 31.8887 19.0273 31.9736 18.7754 32.0264C18.5264 32.082 18.2671 32.1099 17.9976 32.1099C17.5024 32.1099 17.0439 32.0337 16.6221 31.8813ZM20.5859 31.8813V30.7563C20.8145 30.894 21.0415 30.9966 21.2671 31.064C21.4956 31.1313 21.7109 31.165 21.9131 31.165C22.1592 31.165 22.3525 31.1313 22.4932 31.064C22.6367 30.9966 22.7085 30.894 22.7085 30.7563C22.7085 30.6685 22.6763 30.5952 22.6118 30.5366C22.5474 30.478 22.4639 30.4268 22.3613 30.3828C22.2617 30.3389 22.1519 30.2993 22.0317 30.2642C21.9116 30.229 21.7959 30.1895 21.6846 30.1455C21.5059 30.0781 21.3477 30.0063 21.21 29.9302C21.0752 29.8511 20.9609 29.7603 20.8672 29.6577C20.7764 29.5552 20.7061 29.4365 20.6562 29.3018C20.6094 29.167 20.5859 29.0073 20.5859 28.8228C20.5859 28.5708 20.6401 28.354 20.7485 28.1724C20.8599 27.9907 21.0063 27.8428 21.188 27.7285C21.3726 27.6113 21.582 27.5264 21.8164 27.4736C22.0537 27.418 22.2998 27.3901 22.5547 27.3901C22.7539 27.3901 22.9561 27.4062 23.1611 27.4385C23.3662 27.4678 23.5684 27.5117 23.7676 27.5703V28.6426C23.5918 28.54 23.4028 28.4639 23.2007 28.4141C23.0015 28.3613 22.8052 28.335 22.6118 28.335C22.521 28.335 22.4346 28.3438 22.3525 28.3613C22.2734 28.376 22.2031 28.3994 22.1416 28.4316C22.0801 28.4609 22.0317 28.5005 21.9966 28.5503C21.9614 28.5972 21.9438 28.6514 21.9438 28.7129C21.9438 28.7949 21.9702 28.8652 22.0229 28.9238C22.0757 28.9824 22.1445 29.0337 22.2295 29.0776C22.3145 29.1187 22.4082 29.1567 22.5107 29.1919C22.6162 29.2241 22.7202 29.2578 22.8228 29.293C23.0073 29.3574 23.1743 29.4277 23.3237 29.5039C23.4731 29.5801 23.6006 29.6694 23.7061 29.772C23.8145 29.8745 23.8965 29.9946 23.9521 30.1323C24.0107 30.27 24.04 30.4341 24.04 30.6245C24.04 30.8911 23.9814 31.1196 23.8643 31.3101C23.75 31.4976 23.5962 31.6514 23.4028 31.7715C23.2124 31.8887 22.9912 31.9736 22.7393 32.0264C22.4902 32.082 22.231 32.1099 21.9614 32.1099C21.4663 32.1099 21.0078 32.0337 20.5859 31.8813ZM25.5474 26.7881C25.313 26.7881 25.1211 26.7192 24.9717 26.5815C24.8223 26.4409 24.7476 26.2695 24.7476 26.0674C24.7476 25.8594 24.8223 25.6895 24.9717 25.5576C25.1211 25.4258 25.313 25.3599 25.5474 25.3599C25.7847 25.3599 25.9766 25.4258 26.123 25.5576C26.2725 25.6895 26.3472 25.8594 26.3472 26.0674C26.3472 26.2783 26.2725 26.4512 26.123 26.5859C25.9766 26.7207 25.7847 26.7881 25.5474 26.7881ZM26.2329 32H24.8442V27.5H26.2329V32ZM31.748 32H30.3638V29.4995C30.3638 28.8022 30.1147 28.4536 29.6167 28.4536C29.3765 28.4536 29.1787 28.5459 29.0234 28.7305C28.8682 28.915 28.7905 29.1494 28.7905 29.4336V32H27.4019V27.5H28.7905V28.2119H28.8081C29.1392 27.6641 29.6211 27.3901 30.2539 27.3901C31.25 27.3901 31.748 28.0083 31.748 29.2446V32ZM37.2632 31.4858C37.2632 32.3208 37.0215 32.9668 36.5381 33.4238C36.0547 33.8838 35.3545 34.1138 34.4375 34.1138C33.8311 34.1138 33.3506 34.0273 32.9961 33.8545V32.6855C33.459 32.9551 33.9263 33.0898 34.3979 33.0898C34.8667 33.0898 35.23 32.9653 35.4878 32.7163C35.7456 32.4702 35.8745 32.1348 35.8745 31.71V31.354H35.8569C35.5405 31.8579 35.0732 32.1099 34.4551 32.1099C33.8809 32.1099 33.4253 31.9077 33.0884 31.5034C32.7515 31.0991 32.583 30.5571 32.583 29.8774C32.583 29.1157 32.7705 28.5107 33.1455 28.0625C33.5205 27.6143 34.0142 27.3901 34.6265 27.3901C35.1743 27.3901 35.5845 27.6011 35.8569 28.0229H35.8745V27.5H37.2632V31.4858ZM35.8921 29.8379V29.4819C35.8921 29.1978 35.8071 28.9561 35.6372 28.7568C35.4702 28.5547 35.252 28.4536 34.9824 28.4536C34.6748 28.4536 34.4331 28.5737 34.2573 28.814C34.0815 29.0542 33.9937 29.3926 33.9937 29.8291C33.9937 30.2041 34.0771 30.5015 34.2441 30.7212C34.4111 30.938 34.6396 31.0464 34.9297 31.0464C35.2168 31.0464 35.4482 30.9365 35.624 30.7168C35.8027 30.4941 35.8921 30.2012 35.8921 29.8379ZM12.3066 44V37.6982H14.5391C16.7773 37.6982 17.8965 38.7222 17.8965 40.77C17.8965 41.7515 17.5903 42.5352 16.978 43.1211C16.3687 43.707 15.5557 44 14.5391 44H12.3066ZM13.7261 38.854V42.8486H14.4292C15.0444 42.8486 15.5264 42.6641 15.875 42.2949C16.2266 41.9258 16.4023 41.4233 16.4023 40.7876C16.4023 40.187 16.228 39.7153 15.8794 39.3726C15.5337 39.0269 15.0474 38.854 14.4204 38.854H13.7261ZM22.5503 44H21.2363V43.354H21.2188C20.917 43.8579 20.4702 44.1099 19.8784 44.1099C19.4419 44.1099 19.0977 43.9868 18.8457 43.7407C18.5967 43.4917 18.4722 43.1606 18.4722 42.7476C18.4722 41.8745 18.9893 41.3706 20.0234 41.2358L21.2451 41.0732C21.2451 40.5811 20.9785 40.335 20.4453 40.335C19.9092 40.335 19.3994 40.4946 18.916 40.814V39.7681C19.1094 39.6685 19.373 39.5806 19.707 39.5044C20.0439 39.4282 20.3501 39.3901 20.6255 39.3901C21.9087 39.3901 22.5503 40.0303 22.5503 41.3105V44ZM21.2451 42.1719V41.8687L20.4277 41.9741C19.9766 42.0327 19.751 42.2363 19.751 42.585C19.751 42.7432 19.8052 42.8735 19.9136 42.9761C20.0249 43.0757 20.1743 43.1255 20.3618 43.1255C20.6226 43.1255 20.835 43.0361 20.999 42.8574C21.1631 42.6758 21.2451 42.4473 21.2451 42.1719ZM26.3691 43.9473C26.1641 44.0557 25.855 44.1099 25.4419 44.1099C24.4634 44.1099 23.9741 43.6016 23.9741 42.585V40.5239H23.2446V39.5H23.9741V38.5288L25.3584 38.1333V39.5H26.3691V40.5239H25.3584V42.3433C25.3584 42.812 25.5444 43.0464 25.9165 43.0464C26.063 43.0464 26.2139 43.0039 26.3691 42.9189V43.9473ZM30.8999 44H29.5859V43.354H29.5684C29.2666 43.8579 28.8198 44.1099 28.228 44.1099C27.7915 44.1099 27.4473 43.9868 27.1953 43.7407C26.9463 43.4917 26.8218 43.1606 26.8218 42.7476C26.8218 41.8745 27.3389 41.3706 28.373 41.2358L29.5947 41.0732C29.5947 40.5811 29.3281 40.335 28.7949 40.335C28.2588 40.335 27.749 40.4946 27.2656 40.814V39.7681C27.459 39.6685 27.7227 39.5806 28.0566 39.5044C28.3936 39.4282 28.6997 39.3901 28.9751 39.3901C30.2583 39.3901 30.8999 40.0303 30.8999 41.3105V44ZM29.5947 42.1719V41.8687L28.7773 41.9741C28.3262 42.0327 28.1006 42.2363 28.1006 42.585C28.1006 42.7432 28.1548 42.8735 28.2632 42.9761C28.3745 43.0757 28.5239 43.1255 28.7114 43.1255C28.9722 43.1255 29.1846 43.0361 29.3486 42.8574C29.5127 42.6758 29.5947 42.4473 29.5947 42.1719ZM7.1958 50.854H5.39844V56H3.97461V50.854H2.18604V49.6982H7.1958V50.854ZM11.1421 54.1455H8.20654C8.25342 54.7988 8.66504 55.1255 9.44141 55.1255C9.93652 55.1255 10.3716 55.0083 10.7466 54.7739V55.7759C10.3306 55.9985 9.79004 56.1099 9.125 56.1099C8.39844 56.1099 7.83447 55.9092 7.43311 55.5078C7.03174 55.1035 6.83105 54.541 6.83105 53.8203C6.83105 53.0732 7.04785 52.4814 7.48145 52.0449C7.91504 51.6084 8.44824 51.3901 9.08105 51.3901C9.7373 51.3901 10.2441 51.585 10.6016 51.9746C10.9619 52.3643 11.1421 52.8931 11.1421 53.561V54.1455ZM9.85449 53.293C9.85449 52.6484 9.59375 52.3262 9.07227 52.3262C8.84961 52.3262 8.65625 52.4185 8.49219 52.603C8.33105 52.7876 8.23291 53.0176 8.19775 53.293H9.85449ZM19.1138 56H17.7295V53.4336C17.7295 52.7803 17.4893 52.4536 17.0088 52.4536C16.7803 52.4536 16.5942 52.5518 16.4507 52.748C16.3071 52.9443 16.2354 53.189 16.2354 53.4819V56H14.8467V53.4072C14.8467 52.7715 14.6108 52.4536 14.1392 52.4536C13.9019 52.4536 13.7114 52.5474 13.5679 52.7349C13.4272 52.9224 13.3569 53.1772 13.3569 53.4995V56H11.9683V51.5H13.3569V52.2031H13.3745C13.5181 51.9629 13.7188 51.7681 13.9766 51.6187C14.2373 51.4663 14.5215 51.3901 14.8291 51.3901C15.4648 51.3901 15.8999 51.6699 16.1343 52.2295C16.4771 51.6699 16.981 51.3901 17.646 51.3901C18.6245 51.3901 19.1138 51.9937 19.1138 53.2007V56ZM21.6187 55.4771H21.6011V58.0698H20.2124V51.5H21.6011V52.1768H21.6187C21.9614 51.6523 22.4434 51.3901 23.0645 51.3901C23.6475 51.3901 24.0972 51.5908 24.4136 51.9922C24.7329 52.3906 24.8926 52.9341 24.8926 53.6226C24.8926 54.3726 24.7065 54.9746 24.3345 55.4287C23.9653 55.8828 23.4731 56.1099 22.8579 56.1099C22.3159 56.1099 21.9028 55.8989 21.6187 55.4771ZM21.5791 53.6313V53.9917C21.5791 54.3022 21.6611 54.5557 21.8252 54.752C21.9893 54.9482 22.2046 55.0464 22.4712 55.0464C22.7876 55.0464 23.0322 54.9248 23.2051 54.6816C23.3809 54.4355 23.4688 54.0884 23.4688 53.6401C23.4688 52.8491 23.1611 52.4536 22.5459 52.4536C22.2617 52.4536 22.0288 52.562 21.8472 52.7788C21.6685 52.9927 21.5791 53.2769 21.5791 53.6313ZM27.1821 56H25.7935V49.3379H27.1821V56ZM32.0952 56H30.7812V55.354H30.7637C30.4619 55.8579 30.0151 56.1099 29.4233 56.1099C28.9868 56.1099 28.6426 55.9868 28.3906 55.7407C28.1416 55.4917 28.0171 55.1606 28.0171 54.7476C28.0171 53.8745 28.5342 53.3706 29.5684 53.2358L30.79 53.0732C30.79 52.5811 30.5234 52.335 29.9902 52.335C29.4541 52.335 28.9443 52.4946 28.4609 52.814V51.7681C28.6543 51.6685 28.918 51.5806 29.252 51.5044C29.5889 51.4282 29.895 51.3901 30.1704 51.3901C31.4536 51.3901 32.0952 52.0303 32.0952 53.3105V56ZM30.79 54.1719V53.8687L29.9727 53.9741C29.5215 54.0327 29.2959 54.2363 29.2959 54.585C29.2959 54.7432 29.3501 54.8735 29.4585 54.9761C29.5698 55.0757 29.7192 55.1255 29.9067 55.1255C30.1675 55.1255 30.3799 55.0361 30.5439 54.8574C30.708 54.6758 30.79 54.4473 30.79 54.1719ZM35.9141 55.9473C35.709 56.0557 35.3999 56.1099 34.9868 56.1099C34.0083 56.1099 33.519 55.6016 33.519 54.585V52.5239H32.7896V51.5H33.519V50.5288L34.9033 50.1333V51.5H35.9141V52.5239H34.9033V54.3433C34.9033 54.812 35.0894 55.0464 35.4614 55.0464C35.6079 55.0464 35.7588 55.0039 35.9141 54.9189V55.9473ZM40.7085 54.1455H37.7729C37.8198 54.7988 38.2314 55.1255 39.0078 55.1255C39.5029 55.1255 39.938 55.0083 40.313 54.7739V55.7759C39.897 55.9985 39.3564 56.1099 38.6914 56.1099C37.9648 56.1099 37.4009 55.9092 36.9995 55.5078C36.5981 55.1035 36.3975 54.541 36.3975 53.8203C36.3975 53.0732 36.6143 52.4814 37.0479 52.0449C37.4814 51.6084 38.0146 51.3901 38.6475 51.3901C39.3037 51.3901 39.8105 51.585 40.168 51.9746C40.5283 52.3643 40.7085 52.8931 40.7085 53.561V54.1455ZM39.4209 53.293C39.4209 52.6484 39.1602 52.3262 38.6387 52.3262C38.416 52.3262 38.2227 52.4185 38.0586 52.603C37.8975 52.7876 37.7993 53.0176 37.7642 53.293H39.4209Z" fill="#102A43"/>
</svg>
