<svg width="43" height="71" viewBox="0 0 43 71" fill="none" xmlns="http://www.w3.org/2000/svg">
<path fill-rule="evenodd" clip-rule="evenodd" d="M30.1092 0.0387181C30.0849 0.0139536 30.0517 1.00307e-07 30.017 0V0C29.9457 -2.0624e-07 29.8878 0.0578121 29.8878 0.129127V6.85012C29.8878 9.23776 29.8878 10.4316 30.3811 11.3305C30.7473 11.9978 31.2963 12.5467 31.9635 12.9129C32.8625 13.4062 34.0563 13.4062 36.4439 13.4062H42.8425C42.9295 13.4062 43 13.3357 43 13.2487V13.2487C43 13.2074 42.9838 13.1679 42.955 13.1384L30.1092 0.0387181ZM18.6098 4.23916e-06C22.3811 2.06476e-06 24.2667 9.77564e-07 25.4383 1.17157C26.6098 2.34315 26.6098 4.22876 26.6098 8V8.46376C26.6098 12.235 26.6098 14.1206 27.7814 15.2922C28.953 16.4638 30.8386 16.4638 34.6098 16.4638H35C38.7712 16.4638 40.6569 16.4638 41.8284 17.6353C43 18.8069 43 20.6925 43 24.4638V61C43 65.714 43 68.0711 41.5355 69.5355C40.0711 71 37.714 71 33 71H11C6.28595 71 3.92893 71 2.46447 69.5355C1 68.0711 1 65.714 1 61V10C1 5.28596 1 2.92894 2.46447 1.46447C3.92893 8.62678e-06 6.28595 8.62678e-06 11 8.62678e-06L18.6098 4.23916e-06Z" fill="#BCCCDC"/>
<path d="M10.0742 37.7583V36.3521C10.3291 36.5659 10.606 36.7271 10.9048 36.8354C11.2036 36.9409 11.5054 36.9937 11.8101 36.9937C11.9888 36.9937 12.144 36.9775 12.2759 36.9453C12.4106 36.9131 12.522 36.8691 12.6099 36.8135C12.7007 36.7549 12.7681 36.6875 12.812 36.6113C12.856 36.5322 12.8779 36.4473 12.8779 36.3564C12.8779 36.2334 12.8428 36.1235 12.7725 36.0269C12.7021 35.9302 12.6055 35.8408 12.4824 35.7588C12.3623 35.6768 12.2188 35.5977 12.0518 35.5215C11.8848 35.4453 11.7046 35.3677 11.5112 35.2886C11.019 35.0835 10.6514 34.833 10.4082 34.5371C10.168 34.2412 10.0479 33.8838 10.0479 33.4648C10.0479 33.1367 10.1138 32.8555 10.2456 32.6211C10.3774 32.3838 10.5562 32.189 10.7817 32.0366C11.0103 31.8843 11.2739 31.7729 11.5728 31.7026C11.8716 31.6294 12.188 31.5928 12.522 31.5928C12.8501 31.5928 13.1401 31.6133 13.3921 31.6543C13.647 31.6924 13.8813 31.7524 14.0952 31.8345V33.1484C13.9897 33.0752 13.874 33.0107 13.748 32.9551C13.625 32.8994 13.4976 32.854 13.3657 32.8188C13.2339 32.7808 13.1021 32.7529 12.9702 32.7354C12.8413 32.7178 12.7183 32.709 12.6011 32.709C12.4399 32.709 12.2935 32.7251 12.1616 32.7573C12.0298 32.7866 11.9185 32.8291 11.8276 32.8848C11.7368 32.9404 11.6665 33.0078 11.6167 33.0869C11.5669 33.1631 11.542 33.2495 11.542 33.3462C11.542 33.4517 11.5698 33.5469 11.6255 33.6318C11.6812 33.7139 11.7603 33.793 11.8628 33.8691C11.9653 33.9424 12.0898 34.0156 12.2363 34.0889C12.3828 34.1592 12.5483 34.2324 12.7329 34.3086C12.9849 34.4141 13.2104 34.5269 13.4097 34.647C13.6118 34.7642 13.7847 34.8975 13.9282 35.0469C14.0718 35.1963 14.1816 35.3677 14.2578 35.561C14.334 35.7515 14.3721 35.9741 14.3721 36.229C14.3721 36.5806 14.3047 36.8765 14.1699 37.1167C14.0381 37.354 13.8579 37.5474 13.6294 37.6968C13.4009 37.8433 13.1343 37.9487 12.8296 38.0132C12.5278 38.0776 12.2085 38.1099 11.8716 38.1099C11.5259 38.1099 11.1963 38.0806 10.8828 38.022C10.5723 37.9634 10.3027 37.8755 10.0742 37.7583ZM19.5928 38H18.2085V35.4424C18.2085 34.7832 17.9683 34.4536 17.4878 34.4536C17.2417 34.4536 17.0425 34.5459 16.8901 34.7305C16.7378 34.915 16.6616 35.1494 16.6616 35.4336V38H15.2729V31.3379H16.6616V34.168H16.6792C17.019 33.6494 17.4805 33.3901 18.0635 33.3901C19.083 33.3901 19.5928 34.0054 19.5928 35.2358V38ZM24.7388 36.1455H21.8032C21.8501 36.7988 22.2617 37.1255 23.0381 37.1255C23.5332 37.1255 23.9683 37.0083 24.3433 36.7739V37.7759C23.9272 37.9985 23.3867 38.1099 22.7217 38.1099C21.9951 38.1099 21.4312 37.9092 21.0298 37.5078C20.6284 37.1035 20.4277 36.541 20.4277 35.8203C20.4277 35.0732 20.6445 34.4814 21.0781 34.0449C21.5117 33.6084 22.0449 33.3901 22.6777 33.3901C23.334 33.3901 23.8408 33.585 24.1982 33.9746C24.5586 34.3643 24.7388 34.8931 24.7388 35.561V36.1455ZM23.4512 35.293C23.4512 34.6484 23.1904 34.3262 22.6689 34.3262C22.4463 34.3262 22.2529 34.4185 22.0889 34.603C21.9277 34.7876 21.8296 35.0176 21.7944 35.293H23.4512ZM29.6079 36.1455H26.6724C26.7192 36.7988 27.1309 37.1255 27.9072 37.1255C28.4023 37.1255 28.8374 37.0083 29.2124 36.7739V37.7759C28.7964 37.9985 28.2559 38.1099 27.5908 38.1099C26.8643 38.1099 26.3003 37.9092 25.8989 37.5078C25.4976 37.1035 25.2969 36.541 25.2969 35.8203C25.2969 35.0732 25.5137 34.4814 25.9473 34.0449C26.3809 33.6084 26.9141 33.3901 27.5469 33.3901C28.2031 33.3901 28.71 33.585 29.0674 33.9746C29.4277 34.3643 29.6079 34.8931 29.6079 35.561V36.1455ZM28.3203 35.293C28.3203 34.6484 28.0596 34.3262 27.5381 34.3262C27.3154 34.3262 27.1221 34.4185 26.958 34.603C26.7969 34.7876 26.6987 35.0176 26.6636 35.293H28.3203ZM33.1543 37.9473C32.9492 38.0557 32.6401 38.1099 32.2271 38.1099C31.2485 38.1099 30.7593 37.6016 30.7593 36.585V34.5239H30.0298V33.5H30.7593V32.5288L32.1436 32.1333V33.5H33.1543V34.5239H32.1436V36.3433C32.1436 36.812 32.3296 37.0464 32.7017 37.0464C32.8481 37.0464 32.999 37.0039 33.1543 36.9189V37.9473ZM13.8711 50H12.4692V46.2295C12.4692 45.8223 12.4868 45.3726 12.522 44.8804H12.4868C12.4136 45.2671 12.3477 45.5454 12.2891 45.7153L10.8125 50H9.65234L8.14941 45.7593C8.1084 45.645 8.04248 45.3521 7.95166 44.8804H7.91211C7.9502 45.5015 7.96924 46.0464 7.96924 46.5151V50H6.69043V43.6982H8.76904L10.0566 47.4336C10.1592 47.7324 10.2339 48.0327 10.2808 48.3345H10.3071C10.3862 47.9858 10.4697 47.6826 10.5576 47.4248L11.8452 43.6982H13.8711V50ZM19.2104 48.1455H16.2749C16.3218 48.7988 16.7334 49.1255 17.5098 49.1255C18.0049 49.1255 18.4399 49.0083 18.8149 48.7739V49.7759C18.3989 49.9985 17.8584 50.1099 17.1934 50.1099C16.4668 50.1099 15.9028 49.9092 15.5015 49.5078C15.1001 49.1035 14.8994 48.541 14.8994 47.8203C14.8994 47.0732 15.1162 46.4814 15.5498 46.0449C15.9834 45.6084 16.5166 45.3901 17.1494 45.3901C17.8057 45.3901 18.3125 45.585 18.6699 45.9746C19.0303 46.3643 19.2104 46.8931 19.2104 47.561V48.1455ZM17.9229 47.293C17.9229 46.6484 17.6621 46.3262 17.1406 46.3262C16.918 46.3262 16.7246 46.4185 16.5605 46.603C16.3994 46.7876 16.3013 47.0176 16.2661 47.293H17.9229ZM22.9722 46.7524C22.8052 46.6616 22.6104 46.6162 22.3877 46.6162C22.0859 46.6162 21.8501 46.7275 21.6802 46.9502C21.5103 47.1699 21.4253 47.4702 21.4253 47.8511V50H20.0366V45.5H21.4253V46.335H21.4429C21.6626 45.7256 22.0581 45.4209 22.6294 45.4209C22.7759 45.4209 22.8901 45.4385 22.9722 45.4736V46.7524ZM27.9995 49.4858C27.9995 50.3208 27.7578 50.9668 27.2744 51.4238C26.791 51.8838 26.0908 52.1138 25.1738 52.1138C24.5674 52.1138 24.0869 52.0273 23.7324 51.8545V50.6855C24.1953 50.9551 24.6626 51.0898 25.1343 51.0898C25.603 51.0898 25.9663 50.9653 26.2241 50.7163C26.4819 50.4702 26.6108 50.1348 26.6108 49.71V49.354H26.5933C26.2769 49.8579 25.8096 50.1099 25.1914 50.1099C24.6172 50.1099 24.1616 49.9077 23.8247 49.5034C23.4878 49.0991 23.3193 48.5571 23.3193 47.8774C23.3193 47.1157 23.5068 46.5107 23.8818 46.0625C24.2568 45.6143 24.7505 45.3901 25.3628 45.3901C25.9106 45.3901 26.3208 45.6011 26.5933 46.0229H26.6108V45.5H27.9995V49.4858ZM26.6284 47.8379V47.4819C26.6284 47.1978 26.5435 46.9561 26.3735 46.7568C26.2065 46.5547 25.9883 46.4536 25.7188 46.4536C25.4111 46.4536 25.1694 46.5737 24.9937 46.814C24.8179 47.0542 24.73 47.3926 24.73 47.8291C24.73 48.2041 24.8135 48.5015 24.9805 48.7212C25.1475 48.938 25.376 49.0464 25.666 49.0464C25.9531 49.0464 26.1846 48.9365 26.3604 48.7168C26.5391 48.4941 26.6284 48.2012 26.6284 47.8379ZM33.2026 48.1455H30.2671C30.314 48.7988 30.7256 49.1255 31.502 49.1255C31.9971 49.1255 32.4321 49.0083 32.8071 48.7739V49.7759C32.3911 49.9985 31.8506 50.1099 31.1855 50.1099C30.459 50.1099 29.895 49.9092 29.4937 49.5078C29.0923 49.1035 28.8916 48.541 28.8916 47.8203C28.8916 47.0732 29.1084 46.4814 29.542 46.0449C29.9756 45.6084 30.5088 45.3901 31.1416 45.3901C31.7979 45.3901 32.3047 45.585 32.6621 45.9746C33.0225 46.3643 33.2026 46.8931 33.2026 47.561V48.1455ZM31.915 47.293C31.915 46.6484 31.6543 46.3262 31.1328 46.3262C30.9102 46.3262 30.7168 46.4185 30.5527 46.603C30.3916 46.7876 30.2935 47.0176 30.2583 47.293H31.915ZM36.9644 46.7524C36.7974 46.6616 36.6025 46.6162 36.3799 46.6162C36.0781 46.6162 35.8423 46.7275 35.6724 46.9502C35.5024 47.1699 35.4175 47.4702 35.4175 47.8511V50H34.0288V45.5H35.4175V46.335H35.4351C35.6548 45.7256 36.0503 45.4209 36.6216 45.4209C36.7681 45.4209 36.8823 45.4385 36.9644 45.4736V46.7524Z" fill="#102A43"/>
</svg>
