<svg width="368" height="296" viewBox="0 0 368 296" fill="none" xmlns="http://www.w3.org/2000/svg">
<path fill-rule="evenodd" clip-rule="evenodd" d="M0 31C0 13.8792 13.8792 0 31 0H337C354.121 0 368 13.8792 368 31V265C368 282.121 354.121 296 337 296H31C13.8792 296 0 282.121 0 265V31ZM94 93H172V153H94V93ZM172 185H94V245H172V185ZM196 93H274V153H196V93ZM274 185H196V245H274V185Z" fill="#C4C4C4"/>
<path d="M89.8691 51.2852C89.8691 50.2891 89.5176 49.5273 88.8145 49C88.1113 48.4609 86.8457 47.8984 85.0176 47.3125C83.1895 46.7148 81.7422 46.1289 80.6758 45.5547C77.7695 43.9844 76.3164 41.8691 76.3164 39.209C76.3164 37.8262 76.7031 36.5957 77.4766 35.5176C78.2617 34.4277 79.3809 33.5781 80.834 32.9688C82.2988 32.3594 83.9395 32.0547 85.7559 32.0547C87.584 32.0547 89.2129 32.3887 90.6426 33.0566C92.0723 33.7129 93.1797 34.6445 93.9648 35.8516C94.7617 37.0586 95.1602 38.4297 95.1602 39.9648H89.8867C89.8867 38.793 89.5176 37.8848 88.7793 37.2402C88.041 36.584 87.0039 36.2559 85.668 36.2559C84.3789 36.2559 83.377 36.5312 82.6621 37.082C81.9473 37.6211 81.5898 38.3359 81.5898 39.2266C81.5898 40.0586 82.0059 40.7559 82.8379 41.3184C83.6816 41.8809 84.918 42.4082 86.5469 42.9004C89.5469 43.8027 91.7324 44.9219 93.1035 46.2578C94.4746 47.5938 95.1602 49.2578 95.1602 51.25C95.1602 53.4648 94.3223 55.2051 92.6465 56.4707C90.9707 57.7246 88.7148 58.3516 85.8789 58.3516C83.9102 58.3516 82.1172 57.9941 80.5 57.2793C78.8828 56.5527 77.6465 55.5625 76.791 54.3086C75.9473 53.0547 75.5254 51.6016 75.5254 49.9492H80.8164C80.8164 52.7734 82.5039 54.1855 85.8789 54.1855C87.1328 54.1855 88.1113 53.9336 88.8145 53.4297C89.5176 52.9141 89.8691 52.1992 89.8691 51.2852ZM103.369 41.0547C104.717 39.4375 106.41 38.6289 108.449 38.6289C112.574 38.6289 114.666 41.0254 114.725 45.8184V58H109.645V45.959C109.645 44.8691 109.41 44.0664 108.941 43.5508C108.473 43.0234 107.693 42.7598 106.604 42.7598C105.115 42.7598 104.037 43.334 103.369 44.4824V58H98.2891V31H103.369V41.0547ZM127.311 58.3516C124.521 58.3516 122.248 57.4961 120.49 55.7852C118.744 54.0742 117.871 51.7949 117.871 48.9473V48.4551C117.871 46.5449 118.24 44.8398 118.979 43.3398C119.717 41.8281 120.76 40.668 122.107 39.8594C123.467 39.0391 125.014 38.6289 126.748 38.6289C129.35 38.6289 131.395 39.4492 132.883 41.0898C134.383 42.7305 135.133 45.0566 135.133 48.0684V50.1426H123.021C123.186 51.3848 123.678 52.3809 124.498 53.1309C125.33 53.8809 126.379 54.2559 127.645 54.2559C129.602 54.2559 131.131 53.5469 132.232 52.1289L134.729 54.9238C133.967 56.002 132.936 56.8457 131.635 57.4551C130.334 58.0527 128.893 58.3516 127.311 58.3516ZM126.73 42.7422C125.723 42.7422 124.902 43.082 124.27 43.7617C123.648 44.4414 123.25 45.4141 123.074 46.6797H130.141V46.2754C130.117 45.1504 129.812 44.2832 129.227 43.6738C128.641 43.0527 127.809 42.7422 126.73 42.7422ZM146.787 58.3516C143.998 58.3516 141.725 57.4961 139.967 55.7852C138.221 54.0742 137.348 51.7949 137.348 48.9473V48.4551C137.348 46.5449 137.717 44.8398 138.455 43.3398C139.193 41.8281 140.236 40.668 141.584 39.8594C142.943 39.0391 144.49 38.6289 146.225 38.6289C148.826 38.6289 150.871 39.4492 152.359 41.0898C153.859 42.7305 154.609 45.0566 154.609 48.0684V50.1426H142.498C142.662 51.3848 143.154 52.3809 143.975 53.1309C144.807 53.8809 145.855 54.2559 147.121 54.2559C149.078 54.2559 150.607 53.5469 151.709 52.1289L154.205 54.9238C153.443 56.002 152.412 56.8457 151.111 57.4551C149.811 58.0527 148.369 58.3516 146.787 58.3516ZM146.207 42.7422C145.199 42.7422 144.379 43.082 143.746 43.7617C143.125 44.4414 142.727 45.4141 142.551 46.6797H149.617V46.2754C149.594 45.1504 149.289 44.2832 148.703 43.6738C148.117 43.0527 147.285 42.7422 146.207 42.7422ZM163.592 34.3047V38.9805H166.844V42.707H163.592V52.1992C163.592 52.9023 163.727 53.4062 163.996 53.7109C164.266 54.0156 164.781 54.168 165.543 54.168C166.105 54.168 166.604 54.127 167.037 54.0449V57.8945C166.041 58.1992 165.016 58.3516 163.961 58.3516C160.398 58.3516 158.582 56.5527 158.512 52.9551V42.707H155.734V38.9805H158.512V34.3047H163.592ZM185.863 32.4062L192.438 50.9688L198.977 32.4062H205.902V58H200.611V51.0039L201.139 38.9277L194.23 58H190.609L183.719 38.9453L184.246 51.0039V58H178.973V32.4062H185.863ZM218.928 58.3516C216.139 58.3516 213.865 57.4961 212.107 55.7852C210.361 54.0742 209.488 51.7949 209.488 48.9473V48.4551C209.488 46.5449 209.857 44.8398 210.596 43.3398C211.334 41.8281 212.377 40.668 213.725 39.8594C215.084 39.0391 216.631 38.6289 218.365 38.6289C220.967 38.6289 223.012 39.4492 224.5 41.0898C226 42.7305 226.75 45.0566 226.75 48.0684V50.1426H214.639C214.803 51.3848 215.295 52.3809 216.115 53.1309C216.947 53.8809 217.996 54.2559 219.262 54.2559C221.219 54.2559 222.748 53.5469 223.85 52.1289L226.346 54.9238C225.584 56.002 224.553 56.8457 223.252 57.4551C221.951 58.0527 220.51 58.3516 218.928 58.3516ZM218.348 42.7422C217.34 42.7422 216.52 43.082 215.887 43.7617C215.266 44.4414 214.867 45.4141 214.691 46.6797H221.758V46.2754C221.734 45.1504 221.43 44.2832 220.844 43.6738C220.258 43.0527 219.426 42.7422 218.348 42.7422ZM240.338 43.7441C239.646 43.6504 239.037 43.6035 238.51 43.6035C236.588 43.6035 235.328 44.2539 234.73 45.5547V58H229.65V38.9805H234.449L234.59 41.248C235.609 39.502 237.021 38.6289 238.826 38.6289C239.389 38.6289 239.916 38.7051 240.408 38.8574L240.338 43.7441ZM241.709 48.3496C241.709 45.4316 242.4 43.082 243.783 41.3008C245.178 39.5195 247.053 38.6289 249.408 38.6289C251.494 38.6289 253.117 39.3438 254.277 40.7734L254.488 38.9805H259.094V57.3672C259.094 59.0312 258.713 60.4785 257.951 61.709C257.201 62.9395 256.141 63.877 254.77 64.5215C253.398 65.166 251.793 65.4883 249.953 65.4883C248.559 65.4883 247.199 65.207 245.875 64.6445C244.551 64.0938 243.549 63.3789 242.869 62.5L245.119 59.4062C246.385 60.8242 247.92 61.5332 249.725 61.5332C251.072 61.5332 252.121 61.1699 252.871 60.4434C253.621 59.7285 253.996 58.709 253.996 57.3848V56.3652C252.824 57.6895 251.283 58.3516 249.373 58.3516C247.088 58.3516 245.236 57.4609 243.818 55.6797C242.412 53.8867 241.709 51.5137 241.709 48.5605V48.3496ZM246.789 48.7188C246.789 50.4414 247.135 51.7949 247.826 52.7793C248.518 53.752 249.467 54.2383 250.674 54.2383C252.221 54.2383 253.328 53.6582 253.996 52.498V44.5C253.316 43.3398 252.221 42.7598 250.709 42.7598C249.49 42.7598 248.529 43.2578 247.826 44.2539C247.135 45.25 246.789 46.7383 246.789 48.7188ZM271.768 58.3516C268.979 58.3516 266.705 57.4961 264.947 55.7852C263.201 54.0742 262.328 51.7949 262.328 48.9473V48.4551C262.328 46.5449 262.697 44.8398 263.436 43.3398C264.174 41.8281 265.217 40.668 266.564 39.8594C267.924 39.0391 269.471 38.6289 271.205 38.6289C273.807 38.6289 275.852 39.4492 277.34 41.0898C278.84 42.7305 279.59 45.0566 279.59 48.0684V50.1426H267.479C267.643 51.3848 268.135 52.3809 268.955 53.1309C269.787 53.8809 270.836 54.2559 272.102 54.2559C274.059 54.2559 275.588 53.5469 276.689 52.1289L279.186 54.9238C278.424 56.002 277.393 56.8457 276.092 57.4551C274.791 58.0527 273.35 58.3516 271.768 58.3516ZM271.188 42.7422C270.18 42.7422 269.359 43.082 268.727 43.7617C268.105 44.4414 267.707 45.4141 267.531 46.6797H274.598V46.2754C274.574 45.1504 274.27 44.2832 273.684 43.6738C273.098 43.0527 272.266 42.7422 271.188 42.7422ZM293.178 43.7441C292.486 43.6504 291.877 43.6035 291.35 43.6035C289.428 43.6035 288.168 44.2539 287.57 45.5547V58H282.49V38.9805H287.289L287.43 41.248C288.449 39.502 289.861 38.6289 291.666 38.6289C292.229 38.6289 292.756 38.7051 293.248 38.8574L293.178 43.7441Z" fill="#102A43"/>
</svg>
