<svg width="59" height="59" viewBox="0 0 59 59" fill="none" xmlns="http://www.w3.org/2000/svg">
<circle cx="29.5" cy="29.5" r="28.5" stroke="#BCCCDC" stroke-width="2"/>
<path d="M24.6406 37.2734C24.4844 36.8672 24.3594 36.4141 24.2656 35.9141C24.1875 35.3984 24.1484 34.9141 24.1484 34.4609C24.1484 33.7422 24.2188 33.0859 24.3594 32.4922C24.5 31.8984 24.7109 31.3438 24.9922 30.8281C25.2734 30.2969 25.625 29.7969 26.0469 29.3281C26.4688 28.8438 26.9609 28.3672 27.5234 27.8984C28.1172 27.3984 28.6328 26.9375 29.0703 26.5156C29.5234 26.0781 29.9062 25.6484 30.2188 25.2266C30.5312 24.7891 30.7656 24.3438 30.9219 23.8906C31.0781 23.4219 31.1562 22.9062 31.1562 22.3438C31.1562 21.8594 31.0703 21.4141 30.8984 21.0078C30.7266 20.5859 30.4766 20.2266 30.1484 19.9297C29.8359 19.6328 29.4453 19.3984 28.9766 19.2266C28.5234 19.0547 28.0156 18.9688 27.4531 18.9688C26.2344 18.9688 24.9688 19.2266 23.6562 19.7422C22.3438 20.2422 21.1016 21.0078 19.9297 22.0391V14.9844C21.1328 14.2656 22.4453 13.7266 23.8672 13.3672C25.2891 13.0078 26.7578 12.8281 28.2734 12.8281C29.7266 12.8281 31.0781 12.9922 32.3281 13.3203C33.5781 13.6328 34.6641 14.1328 35.5859 14.8203C36.5234 15.5078 37.25 16.3906 37.7656 17.4688C38.2969 18.5312 38.5625 19.8125 38.5625 21.3125C38.5625 22.2656 38.4531 23.1328 38.2344 23.9141C38.0156 24.6797 37.6953 25.4062 37.2734 26.0938C36.8516 26.7812 36.3281 27.4453 35.7031 28.0859C35.0781 28.7109 34.3594 29.3594 33.5469 30.0312C33 30.4844 32.5156 30.9062 32.0938 31.2969C31.6875 31.6875 31.3438 32.0781 31.0625 32.4688C30.7969 32.8438 30.5938 33.25 30.4531 33.6875C30.3125 34.1094 30.2422 34.5938 30.2422 35.1406C30.2422 35.5156 30.2891 35.8984 30.3828 36.2891C30.4922 36.6797 30.6328 37.0078 30.8047 37.2734H24.6406ZM28.0625 47.5391C26.8125 47.5391 25.7734 47.1641 24.9453 46.4141C24.1172 45.6328 23.7031 44.7109 23.7031 43.6484C23.7031 42.5547 24.1172 41.6406 24.9453 40.9062C25.7734 40.1719 26.8125 39.8047 28.0625 39.8047C29.2969 39.8047 30.3203 40.1719 31.1328 40.9062C31.9453 41.625 32.3516 42.5391 32.3516 43.6484C32.3516 44.7734 31.9531 45.7031 31.1562 46.4375C30.3438 47.1719 29.3125 47.5391 28.0625 47.5391Z" fill="#102A43"/>
</svg>
